<svg xmlns="http://www.w3.org/2000/svg" width="1100" height="480" font-family="sans-serif" style="background:#fff">
<text x="10" y="24" font-size="16" font-weight="bold">Top 10 countries most like Somalia (grey = Somalia, red = match; aligned for scale/rotation/flip)</text>
<path d="M55.1,252.7L55.4,253.4L56.4,252.2L57.3,250.9L58.1,249.6L58.8,248.2L59.6,246.9L60.3,245.5L61.2,244.2L62.3,243.2L63.4,242.1L64.5,240.9L65.5,239.7L66.4,238.5L67.6,237.4L68.5,236.1L69.6,235.0L70.7,233.9L71.8,232.8L72.9,231.7L74.0,230.6L75.1,229.4L76.1,228.3L77.2,227.2L78.3,226.1L79.4,224.9L80.5,223.8L81.6,222.7L82.8,221.7L83.9,220.6L85.2,219.7L86.4,218.7L87.6,217.8L88.8,216.7L89.9,215.6L91.0,214.6L92.3,213.6L93.5,212.7L94.8,211.8L96.1,210.9L97.4,210.0L98.6,209.1L100.0,208.3L101.3,207.5L102.7,206.8L104.1,206.0L105.5,205.3L106.8,204.5L108.2,203.8L109.6,203.0L110.9,202.3L112.2,201.4L113.5,200.4L114.6,199.4L115.8,198.3L116.9,197.2L118.0,196.1L119.1,195.0L120.2,194.0L121.4,192.9L122.5,191.8L123.6,190.7L124.7,189.6L125.8,188.5L126.8,187.3L127.9,186.2L129.0,185.0L130.0,183.9L131.1,182.7L132.2,181.6L133.2,180.4L134.2,179.2L135.3,178.1L136.3,176.9L137.3,175.7L138.4,174.5L139.3,173.3L140.1,171.9L140.8,170.6L141.6,169.2L142.4,167.9L143.3,166.6L144.3,165.4L145.2,164.1L146.2,162.9L147.1,161.6L148.0,160.4L148.8,159.0L149.6,157.7L150.3,156.3L151.1,155.0L151.9,153.6L152.7,152.3L153.0,150.7L153.3,149.2L153.8,147.7L154.4,146.3L154.9,144.8L155.6,143.4L156.3,142.0L157.2,140.7L158.1,139.4L159.0,138.1L159.8,136.8L160.6,135.5L161.3,134.1L161.9,132.6L162.3,131.1L162.8,129.6L163.5,128.3L164.7,127.3L165.8,126.2L166.7,124.9L167.5,123.6L168.2,122.2L168.8,120.8L169.4,119.3L170.1,117.9L170.9,116.6L171.9,115.4L172.8,114.1L173.4,112.7L174.2,111.3L175.1,110.1L175.3,108.6L175.4,107.0L175.5,105.5L175.7,103.9L175.9,102.4L176.0,100.8L176.1,99.3L176.7,97.9L178.1,97.3L179.7,96.8L181.1,97.1L182.4,96.9L181.4,95.9L180.0,95.2L179.4,96.2L178.0,96.6L178.6,95.7L179.1,94.2L179.1,92.6L179.0,91.1L178.9,89.5L178.7,88.0L178.5,86.4L178.3,84.9L178.8,83.4L179.4,81.9L180.0,80.5L180.3,79.0L179.2,78.4L177.7,77.8L176.2,77.3L174.8,76.8L173.3,77.0L172.0,77.8L171.0,79.0L170.1,80.2L168.7,81.0L167.4,81.8L166.0,82.6L164.5,82.9L163.0,83.2L161.4,83.5L159.9,83.7L158.4,84.4L157.0,85.0L155.5,85.4L154.0,85.8L152.5,86.1L150.9,86.3L149.4,86.0L147.9,85.6L146.4,85.5L144.8,85.8L143.4,86.3L141.9,86.9L140.4,87.4L139.0,87.9L137.4,88.1L135.8,88.2L134.3,88.0L132.8,87.6L131.3,87.5L129.8,88.1L128.5,88.9L127.2,89.7L125.9,90.6L124.5,91.3L123.0,91.9L121.6,92.6L120.2,93.1L118.6,93.1L117.1,92.7L115.6,92.5L114.0,92.5L112.5,92.2L110.9,91.9L109.4,92.3L108.0,92.9L106.5,93.5L105.1,94.2L103.7,94.9L102.4,95.6L101.0,96.4L99.6,97.0L98.0,97.1L96.5,97.1L94.9,97.1L93.3,97.1L91.8,96.8L90.5,96.1L89.2,95.1L88.0,94.2L86.7,93.2L85.5,92.2L84.5,91.0L83.5,89.8L82.6,88.6L81.8,87.2L81.0,85.9L80.0,84.7L78.8,83.8L77.7,83.8L76.9,85.1L76.0,86.4L75.2,87.7L74.3,89.0L73.5,90.4L72.5,91.6L71.6,92.8L70.7,94.1L70.8,95.5L71.6,96.9L72.2,98.3L72.7,99.8L73.8,100.9L74.8,102.1L75.6,103.4L77.0,104.1L77.6,105.5L78.3,106.9L79.1,108.3L80.0,109.5L81.0,110.7L82.5,111.2L83.7,112.1L84.8,113.2L86.0,114.2L87.1,115.3L88.5,116.0L90.0,116.5L91.5,117.0L93.0,117.5L94.4,118.0L95.9,118.5L97.4,119.0L98.9,119.4L100.4,119.9L101.9,120.4L103.3,120.9L104.8,121.4L106.3,121.9L107.8,122.4L109.3,122.9L110.7,123.4L112.2,123.9L113.7,124.4L115.2,124.9L116.7,125.4L118.2,125.9L119.6,126.4L121.1,126.9L122.6,127.4L124.1,127.9L125.5,128.4L127.1,128.6L128.6,128.6L130.2,128.6L131.8,128.6L133.3,128.6L134.9,128.6L136.4,128.6L138.0,128.6L138.3,129.1L137.2,130.2L136.1,131.2L135.0,132.3L133.8,133.4L132.7,134.5L131.6,135.6L130.5,136.7L129.3,137.8L128.2,138.9L127.1,140.0L126.0,141.1L124.9,142.1L123.7,143.2L122.6,144.3L121.5,145.4L120.4,146.5L119.2,147.6L118.1,148.7L117.1,149.8L116.0,150.9L114.9,152.0L113.8,153.2L112.7,154.3L111.6,155.4L110.6,156.6L109.5,157.7L108.5,158.9L107.4,160.0L106.3,161.2L105.3,162.3L104.2,163.5L103.2,164.6L102.1,165.8L101.1,166.9L100.0,168.1L98.7,168.6L97.1,168.6L95.5,168.5L94.0,168.4L92.4,168.3L90.9,168.2L89.3,168.1L87.7,168.0L86.2,168.2L84.7,168.6L83.2,168.9L81.6,169.3L80.2,169.9L78.8,170.5L77.4,171.2L76.0,171.9L74.7,172.9L73.8,174.1L73.0,175.5L71.8,176.4L70.3,176.7L68.8,177.0L67.2,177.2L65.7,177.5L64.1,177.6L62.6,178.1L61.3,178.8L60.2,179.9L59.3,181.2L58.4,182.5L57.5,183.7L56.6,185.0L55.7,186.3L54.8,187.6L53.9,188.8L53.0,190.1L51.9,191.3L50.8,192.3L49.7,193.4L48.6,194.5L47.8,195.8L47.8,197.4L47.8,198.9L47.8,200.5L47.8,202.1L47.8,203.6L47.8,205.2L47.8,206.7L47.8,208.3L47.8,209.9L47.8,211.4L47.8,213.0L47.8,214.6L47.8,216.1L47.8,217.7L47.8,219.2L47.8,220.8L47.8,222.4L47.8,223.9L47.8,225.5L47.8,227.1L47.8,228.6L47.8,230.2L47.8,231.7L47.8,233.3L47.8,234.9L47.8,236.4L47.8,238.0L47.8,239.6L47.8,241.1L47.8,242.7L48.6,244.0L49.5,245.2L50.5,246.5L51.4,247.7L52.4,248.9L53.3,250.2L54.3,251.4Z" fill="#9ca3af" fill-opacity="0.45" stroke="#374151" stroke-width="1.5"/>
<path d="M87.2,242.8L89.0,243.3L90.4,242.0L91.7,240.6L93.4,240.7L95.3,241.3L97.2,241.7L99.0,242.2L100.8,243.1L101.9,244.7L103.5,244.8L105.1,243.9L106.8,243.0L108.0,241.6L109.0,239.9L110.1,238.4L111.6,237.2L112.3,235.4L112.9,233.5L114.2,232.6L116.2,232.8L117.8,233.6L118.3,232.4L117.9,230.5L116.8,229.4L117.1,227.5L117.2,225.6L118.2,224.0L118.6,222.3L118.2,220.3L117.8,218.5L117.3,216.6L116.9,214.6L116.5,212.7L115.9,210.9L115.3,209.0L115.5,207.1L116.2,205.4L116.2,203.4L116.3,201.5L116.5,199.5L114.9,199.4L113.7,198.7L114.8,197.2L116.6,196.7L118.6,196.6L119.9,195.3L120.9,193.7L121.9,191.9L122.7,190.2L123.6,188.5L125.3,188.8L127.2,188.7L129.1,188.4L129.9,186.7L130.4,184.8L130.6,182.9L130.3,181.0L130.0,179.0L129.7,177.1L129.3,175.2L128.5,173.4L127.8,171.6L127.1,169.8L126.8,167.9L126.7,165.9L126.9,164.0L127.5,162.2L128.3,160.4L129.1,158.6L130.7,157.4L130.9,155.6L131.4,153.7L131.5,151.8L130.9,150.0L130.9,148.2L131.5,146.4L131.9,144.5L131.9,142.5L132.2,140.6L132.5,138.7L133.6,137.2L135.5,136.7L137.1,135.6L138.6,134.4L140.3,133.4L141.9,132.3L143.7,131.6L145.5,130.9L147.4,130.3L149.3,129.8L150.2,128.2L151.1,126.5L152.4,125.1L153.7,123.6L155.2,122.3L156.6,121.0L158.0,119.6L159.2,118.1L160.8,116.9L162.2,115.6L163.4,114.1L164.5,112.5L165.7,110.9L167.2,109.7L168.3,108.1L169.2,106.4L169.7,104.5L170.0,102.6L168.9,101.1L167.3,102.1L165.7,101.7L165.0,99.9L165.1,98.0L164.2,96.3L163.3,94.6L163.4,92.9L163.3,91.3L162.1,89.9L161.9,88.0L162.2,86.1L161.3,84.5L159.5,83.9L160.7,82.6L159.9,81.0L159.8,79.4L160.9,77.7L160.3,76.0L159.6,74.2L159.1,72.3L158.7,70.4L157.7,70.3L156.6,71.8L155.2,71.2L154.8,69.3L153.5,67.9L152.1,66.5L150.5,65.8L150.5,64.0L149.8,62.4L148.1,61.5L148.6,59.6L149.5,57.9L151.2,57.0L151.5,55.2L150.7,53.6L148.9,54.2L147.1,54.6L145.2,54.5L143.5,53.8L143.0,52.0L141.2,51.4L139.5,52.1L138.0,53.2L136.3,54.1L135.3,55.5L136.1,57.2L137.0,59.0L137.6,60.8L137.9,62.7L138.2,64.6L138.9,66.5L140.4,67.7L142.2,68.4L144.0,69.0L145.5,70.2L146.5,71.8L147.3,73.6L148.1,75.3L149.7,76.3L150.3,78.0L150.7,79.9L151.0,81.8L150.9,83.8L149.8,85.1L148.5,84.1L149.4,82.7L148.7,81.5L149.0,79.6L149.4,77.8L148.5,77.1L148.4,79.0L148.1,80.9L147.6,82.8L147.1,84.7L146.7,86.6L146.2,88.5L145.7,90.4L145.4,92.3L145.5,94.2L146.5,94.1L147.0,96.0L147.1,97.9L146.4,99.7L145.8,101.6L145.2,103.4L144.9,105.4L145.8,106.9L147.7,107.4L149.6,107.7L151.4,108.3L151.8,109.9L150.8,111.5L150.8,113.4L150.5,115.4L149.7,117.1L148.7,118.8L147.7,120.5L146.9,122.2L145.6,123.2L144.3,124.7L142.8,125.9L141.1,126.9L139.5,128.0L138.4,129.6L137.1,131.0L135.8,132.5L134.5,133.9L133.0,135.2L131.4,136.2L130.0,137.4L128.7,138.8L126.9,139.7L125.5,141.1L124.5,142.7L123.9,144.6L123.2,146.4L122.3,148.1L120.8,149.4L119.4,150.7L119.0,152.6L118.9,154.4L117.3,155.3L115.3,155.4L113.5,154.8L111.7,154.2L109.9,154.0L108.7,152.6L107.2,151.3L107.0,149.8L107.9,148.2L109.0,146.6L110.0,145.0L110.9,143.3L111.9,141.7L110.8,140.5L108.9,140.0L107.3,138.9L105.7,137.8L103.9,137.3L101.9,136.9L100.6,135.6L99.6,133.9L98.5,132.4L97.9,130.5L96.9,130.1L96.8,128.2L96.0,126.4L94.9,125.1L93.7,125.1L93.2,123.3L93.3,121.4L93.1,119.5L92.8,117.8L92.8,119.7L92.9,121.7L92.9,123.6L92.4,125.5L91.3,127.1L90.9,128.8L91.6,130.6L92.3,132.3L91.6,134.1L91.0,136.0L90.9,137.9L90.9,139.9L90.4,141.7L89.6,143.5L88.0,143.7L86.2,143.4L85.0,144.3L83.2,145.1L81.5,146.1L79.8,147.1L78.2,148.1L76.4,148.7L74.4,148.7L72.5,148.3L70.6,147.9L68.7,147.5L67.3,146.1L65.6,145.2L63.9,144.3L62.0,143.8L60.3,142.9L58.5,142.1L56.7,141.5L54.8,141.0L53.2,139.9L52.8,138.2L51.9,136.9L50.1,137.7L48.2,137.7L46.3,138.0L44.8,139.2L43.8,140.9L42.7,142.5L41.9,144.2L41.7,146.1L40.8,147.8L39.2,148.9L37.8,150.2L37.1,151.9L38.1,153.5L39.0,155.2L38.2,156.8L39.1,158.3L40.5,159.6L41.3,161.3L41.4,163.3L42.0,165.1L42.3,167.0L42.0,168.9L41.3,170.7L40.4,172.5L39.5,174.2L38.2,175.7L37.6,177.4L37.7,179.3L38.6,181.1L39.6,182.8L40.2,184.6L40.7,186.5L41.0,188.4L41.3,190.3L41.5,192.3L42.3,193.9L43.9,194.8L45.2,196.2L46.7,197.5L48.4,198.5L50.1,198.2L51.1,197.3L52.9,196.7L54.4,195.4L56.2,195.4L58.1,195.6L59.9,195.1L60.6,196.1L61.2,197.7L62.4,199.2L63.2,201.0L64.2,202.6L66.0,202.6L67.9,202.1L69.6,202.4L71.2,201.4L73.1,201.1L75.0,200.8L76.9,200.4L78.8,199.8L80.6,199.5L81.9,201.0L81.7,202.5L80.3,203.8L78.8,205.1L77.3,206.3L76.1,207.8L75.5,209.7L75.7,211.6L74.1,212.7L72.6,213.8L71.3,215.3L69.9,216.7L69.0,218.4L68.9,220.3L68.3,222.2L67.3,223.8L68.0,225.4L69.6,226.5L71.5,226.7L73.4,226.8L74.9,227.9L75.7,229.7L75.4,231.5L73.9,232.8L72.4,234.1L71.5,235.7L72.1,237.4L72.4,239.3L74.0,239.8L75.6,239.3L75.8,240.9L77.0,242.5L78.8,242.4L80.7,242.8L82.2,244.0L82.9,243.2L83.8,241.6L85.7,241.6Z" fill="#ef4444" fill-opacity="0.30" stroke="#991b1b" stroke-width="1.8"/>
<text x="110.0" y="56" font-size="13" text-anchor="middle" fill="#991b1b" font-weight="bold">1. Thailand</text>
<text x="110.0" y="252" font-size="12" text-anchor="middle" fill="#555">d=0.175</text>
<path d="M275.1,252.7L275.4,253.4L276.4,252.2L277.3,250.9L278.1,249.6L278.8,248.2L279.6,246.9L280.3,245.5L281.2,244.2L282.3,243.2L283.4,242.1L284.5,240.9L285.5,239.7L286.4,238.5L287.6,237.4L288.5,236.1L289.6,235.0L290.7,233.9L291.8,232.8L292.9,231.7L294.0,230.6L295.1,229.4L296.1,228.3L297.2,227.2L298.3,226.1L299.4,224.9L300.5,223.8L301.6,222.7L302.8,221.7L303.9,220.6L305.2,219.7L306.4,218.7L307.6,217.8L308.8,216.7L309.9,215.6L311.0,214.6L312.3,213.6L313.5,212.7L314.8,211.8L316.1,210.9L317.4,210.0L318.6,209.1L320.0,208.3L321.3,207.5L322.7,206.8L324.1,206.0L325.5,205.3L326.8,204.5L328.2,203.8L329.6,203.0L330.9,202.3L332.2,201.4L333.5,200.4L334.6,199.4L335.8,198.3L336.9,197.2L338.0,196.1L339.1,195.0L340.2,194.0L341.4,192.9L342.5,191.8L343.6,190.7L344.7,189.6L345.8,188.5L346.8,187.3L347.9,186.2L349.0,185.0L350.0,183.9L351.1,182.7L352.2,181.6L353.2,180.4L354.2,179.2L355.3,178.1L356.3,176.9L357.3,175.7L358.4,174.5L359.3,173.3L360.1,171.9L360.8,170.6L361.6,169.2L362.4,167.9L363.3,166.6L364.3,165.4L365.2,164.1L366.2,162.9L367.1,161.6L368.0,160.4L368.8,159.0L369.6,157.7L370.3,156.3L371.1,155.0L371.9,153.6L372.7,152.3L373.0,150.7L373.3,149.2L373.8,147.7L374.4,146.3L374.9,144.8L375.6,143.4L376.3,142.0L377.2,140.7L378.1,139.4L379.0,138.1L379.8,136.8L380.6,135.5L381.3,134.1L381.9,132.6L382.3,131.1L382.8,129.6L383.5,128.3L384.7,127.3L385.8,126.2L386.7,124.9L387.5,123.6L388.2,122.2L388.8,120.8L389.4,119.3L390.1,117.9L390.9,116.6L391.9,115.4L392.8,114.1L393.4,112.7L394.2,111.3L395.1,110.1L395.3,108.6L395.4,107.0L395.5,105.5L395.7,103.9L395.9,102.4L396.0,100.8L396.1,99.3L396.7,97.9L398.1,97.3L399.7,96.8L401.1,97.1L402.4,96.9L401.4,95.9L400.0,95.2L399.4,96.2L398.0,96.6L398.6,95.7L399.1,94.2L399.1,92.6L399.0,91.1L398.9,89.5L398.7,88.0L398.5,86.4L398.3,84.9L398.8,83.4L399.4,81.9L400.0,80.5L400.3,79.0L399.2,78.4L397.7,77.8L396.2,77.3L394.8,76.8L393.3,77.0L392.0,77.8L391.0,79.0L390.1,80.2L388.7,81.0L387.4,81.8L386.0,82.6L384.5,82.9L383.0,83.2L381.4,83.5L379.9,83.7L378.4,84.4L377.0,85.0L375.5,85.4L374.0,85.8L372.5,86.1L370.9,86.3L369.4,86.0L367.9,85.6L366.4,85.5L364.8,85.8L363.4,86.3L361.9,86.9L360.4,87.4L359.0,87.9L357.4,88.1L355.8,88.2L354.3,88.0L352.8,87.6L351.3,87.5L349.8,88.1L348.5,88.9L347.2,89.7L345.9,90.6L344.5,91.3L343.0,91.9L341.6,92.6L340.2,93.1L338.6,93.1L337.1,92.7L335.6,92.5L334.0,92.5L332.5,92.2L330.9,91.9L329.4,92.3L328.0,92.9L326.5,93.5L325.1,94.2L323.7,94.9L322.4,95.6L321.0,96.4L319.6,97.0L318.0,97.1L316.5,97.1L314.9,97.1L313.3,97.1L311.8,96.8L310.5,96.1L309.2,95.1L308.0,94.2L306.7,93.2L305.5,92.2L304.5,91.0L303.5,89.8L302.6,88.6L301.8,87.2L301.0,85.9L300.0,84.7L298.8,83.8L297.7,83.8L296.9,85.1L296.0,86.4L295.2,87.7L294.3,89.0L293.5,90.4L292.5,91.6L291.6,92.8L290.7,94.1L290.8,95.5L291.6,96.9L292.2,98.3L292.7,99.8L293.8,100.9L294.8,102.1L295.6,103.4L297.0,104.1L297.6,105.5L298.3,106.9L299.1,108.3L300.0,109.5L301.0,110.7L302.5,111.2L303.7,112.1L304.8,113.2L306.0,114.2L307.1,115.3L308.5,116.0L310.0,116.5L311.5,117.0L313.0,117.5L314.4,118.0L315.9,118.5L317.4,119.0L318.9,119.4L320.4,119.9L321.9,120.4L323.3,120.9L324.8,121.4L326.3,121.9L327.8,122.4L329.3,122.9L330.7,123.4L332.2,123.9L333.7,124.4L335.2,124.9L336.7,125.4L338.2,125.9L339.6,126.4L341.1,126.9L342.6,127.4L344.1,127.9L345.5,128.4L347.1,128.6L348.6,128.6L350.2,128.6L351.8,128.6L353.3,128.6L354.9,128.6L356.4,128.6L358.0,128.6L358.3,129.1L357.2,130.2L356.1,131.2L355.0,132.3L353.8,133.4L352.7,134.5L351.6,135.6L350.5,136.7L349.3,137.8L348.2,138.9L347.1,140.0L346.0,141.1L344.9,142.1L343.7,143.2L342.6,144.3L341.5,145.4L340.4,146.5L339.2,147.6L338.1,148.7L337.1,149.8L336.0,150.9L334.9,152.0L333.8,153.2L332.7,154.3L331.6,155.4L330.6,156.6L329.5,157.7L328.5,158.9L327.4,160.0L326.3,161.2L325.3,162.3L324.2,163.5L323.2,164.6L322.1,165.8L321.1,166.9L320.0,168.1L318.7,168.6L317.1,168.6L315.5,168.5L314.0,168.4L312.4,168.3L310.9,168.2L309.3,168.1L307.7,168.0L306.2,168.2L304.7,168.6L303.2,168.9L301.6,169.3L300.2,169.9L298.8,170.5L297.4,171.2L296.0,171.9L294.7,172.9L293.8,174.1L293.0,175.5L291.8,176.4L290.3,176.7L288.8,177.0L287.2,177.2L285.7,177.5L284.1,177.6L282.6,178.1L281.3,178.8L280.2,179.9L279.3,181.2L278.4,182.5L277.5,183.7L276.6,185.0L275.7,186.3L274.8,187.6L273.9,188.8L273.0,190.1L271.9,191.3L270.8,192.3L269.7,193.4L268.6,194.5L267.8,195.8L267.8,197.4L267.8,198.9L267.8,200.5L267.8,202.1L267.8,203.6L267.8,205.2L267.8,206.7L267.8,208.3L267.8,209.9L267.8,211.4L267.8,213.0L267.8,214.6L267.8,216.1L267.8,217.7L267.8,219.2L267.8,220.8L267.8,222.4L267.8,223.9L267.8,225.5L267.8,227.1L267.8,228.6L267.8,230.2L267.8,231.7L267.8,233.3L267.8,234.9L267.8,236.4L267.8,238.0L267.8,239.6L267.8,241.1L267.8,242.7L268.6,244.0L269.5,245.2L270.5,246.5L271.4,247.7L272.4,248.9L273.3,250.2L274.3,251.4Z" fill="#9ca3af" fill-opacity="0.45" stroke="#374151" stroke-width="1.5"/>
<path d="M298.9,211.0L299.4,209.4L300.6,208.4L302.1,207.8L303.7,207.4L305.3,206.9L306.6,205.9L307.5,204.5L308.6,203.3L310.2,203.1L311.9,202.8L313.5,202.4L315.1,201.9L316.4,201.0L317.4,199.6L318.3,198.2L318.9,196.7L319.8,195.2L320.9,194.0L322.0,192.8L323.2,191.6L324.5,190.5L325.6,189.3L326.6,188.0L327.7,186.7L329.1,185.8L330.6,185.2L332.2,184.6L333.7,183.8L335.1,182.9L336.6,182.1L338.2,182.0L339.1,183.4L340.0,184.8L339.9,186.5L339.7,188.1L339.7,189.8L339.7,191.5L339.8,193.1L339.8,194.8L340.1,196.5L341.3,197.4L343.0,197.5L344.6,197.2L346.2,196.9L347.4,195.8L348.7,194.8L350.1,193.8L351.3,192.7L352.3,191.3L353.1,189.9L353.2,188.2L353.2,186.5L353.5,184.9L354.0,183.3L354.8,181.8L355.5,180.3L356.3,178.8L357.0,177.3L357.8,175.9L358.6,174.4L359.3,172.9L359.9,171.3L360.5,169.7L360.9,168.1L361.3,166.5L361.7,164.9L362.1,163.3L363.1,161.9L364.6,162.2L366.3,162.5L367.9,162.7L369.6,162.7L371.3,162.7L372.9,162.4L374.1,161.3L375.3,160.1L376.6,159.0L377.8,157.8L379.0,156.7L380.2,155.5L380.7,154.0L380.9,152.4L381.4,150.8L382.5,149.6L383.8,148.5L385.0,147.4L386.1,146.1L387.0,144.7L387.5,143.1L388.7,141.9L390.1,141.1L390.8,139.6L390.8,137.9L390.7,136.2L390.7,134.6L391.1,133.0L392.0,131.5L393.0,130.2L394.1,129.0L394.9,127.5L395.8,126.1L396.8,124.8L397.6,123.3L398.1,121.7L398.4,120.1L398.7,118.4L398.9,116.8L399.1,115.1L399.5,113.5L400.1,111.9L400.6,110.3L401.1,108.7L401.7,107.2L402.3,105.6L402.8,104.0L403.4,102.5L404.1,100.9L404.9,99.5L405.7,98.0L406.0,96.4L406.6,94.8L407.5,93.4L408.2,91.9L408.9,90.4L409.6,88.9L410.3,87.3L411.0,85.8L411.6,84.3L412.0,82.7L412.0,81.0L410.8,80.5L409.2,80.5L407.5,80.5L405.8,80.4L404.1,80.4L402.5,80.4L400.8,80.4L399.1,80.4L397.4,80.4L395.8,80.3L394.1,80.3L392.4,80.3L390.8,80.3L389.1,80.3L387.4,80.2L385.7,80.2L384.1,80.2L382.4,80.2L380.7,80.2L379.1,80.2L377.4,80.1L375.7,80.1L374.0,80.1L372.4,80.1L370.7,80.1L369.0,80.1L367.3,80.0L365.7,80.0L364.0,80.0L362.3,80.0L360.7,80.0L359.0,80.0L357.3,79.9L355.6,79.9L354.0,79.9L352.3,79.9L350.6,79.9L349.0,79.9L347.3,79.6L345.7,79.1L344.2,78.4L342.6,78.0L341.0,78.1L339.6,78.9L338.2,79.8L336.5,79.8L334.9,79.7L333.2,79.7L331.5,79.7L329.8,79.7L328.2,79.7L326.5,79.7L324.8,79.7L323.1,79.7L321.5,79.6L319.8,79.6L318.1,79.6L316.5,79.6L314.8,79.6L313.1,79.6L311.4,79.6L309.8,79.6L308.1,79.5L306.4,79.5L304.8,79.5L303.1,79.5L301.4,79.5L300.1,80.2L299.2,81.6L298.9,83.2L299.6,84.7L300.0,86.3L299.6,87.9L299.2,89.5L298.9,91.2L298.9,92.8L299.0,94.5L299.1,96.2L299.3,97.8L299.4,99.5L299.5,101.2L299.0,102.8L298.4,104.3L297.4,105.7L296.9,107.3L297.3,108.8L298.1,110.2L299.0,111.7L299.7,113.2L300.4,114.7L301.1,116.2L301.6,117.8L302.4,119.3L303.5,120.4L305.1,120.6L306.7,120.1L308.1,119.2L309.3,118.1L310.4,116.9L311.4,115.5L312.0,114.0L312.7,112.5L313.4,110.9L313.6,109.3L313.7,107.6L313.5,106.0L313.6,104.5L314.8,103.4L316.2,102.5L316.2,100.8L316.6,102.0L316.2,103.4L314.7,104.2L314.0,105.6L314.4,107.2L314.8,108.8L314.6,110.4L314.2,112.1L314.1,113.7L314.1,115.4L314.4,117.0L314.8,118.7L315.0,120.3L315.3,122.0L315.6,123.6L316.5,124.4L318.0,123.7L319.4,123.2L319.4,124.8L319.1,126.4L318.7,128.0L319.2,129.1L320.1,129.0L320.6,130.0L322.1,129.3L323.6,128.6L325.1,127.8L326.6,127.1L327.9,126.1L328.1,126.1L327.0,127.4L325.8,128.5L324.7,129.8L324.1,131.3L323.6,132.9L323.2,134.5L323.9,135.8L324.8,137.3L324.8,138.7L326.1,139.4L326.2,141.0L325.6,142.6L325.2,144.2L325.2,145.8L323.8,146.3L322.6,147.3L322.0,148.9L321.7,150.5L321.4,152.2L321.0,153.8L320.3,155.3L319.8,156.9L319.6,158.6L319.5,160.2L319.0,161.8L318.3,163.3L317.7,164.9L316.9,166.3L315.5,167.2L314.3,168.4L312.9,169.3L311.4,170.0L310.0,170.8L308.7,171.9L307.4,172.9L305.9,173.8L304.5,174.6L303.0,175.3L301.6,176.2L300.5,177.5L299.9,179.0L299.7,180.6L299.4,181.1L297.8,180.7L296.2,181.1L294.8,181.9L293.7,183.1L292.7,184.5L291.8,185.9L290.7,187.2L289.6,188.5L288.3,189.5L286.9,190.3L285.3,191.0L284.2,192.3L283.2,193.5L282.5,195.0L282.2,196.7L281.7,198.3L281.4,199.9L281.6,201.5L281.3,203.2L280.5,204.6L280.2,206.2L280.3,207.9L280.7,209.5L280.2,211.1L279.3,212.6L278.9,214.2L278.7,215.8L278.5,217.5L278.3,219.1L278.1,220.8L277.8,222.4L277.3,224.0L277.1,225.7L277.0,227.3L276.3,228.9L275.4,230.2L274.3,231.5L272.9,232.4L272.3,233.9L271.8,235.5L271.5,237.2L271.4,238.8L271.7,240.5L272.5,241.9L273.6,243.1L274.6,241.7L275.4,240.3L276.7,239.2L277.1,240.7L276.8,242.3L276.9,243.9L277.6,245.4L278.3,246.5L278.1,244.8L278.2,243.2L278.9,241.6L279.1,240.0L279.4,238.4L280.0,236.8L280.7,235.3L281.2,233.7L281.7,232.1L282.4,230.6L283.7,229.6L285.0,228.6L286.3,229.0L286.8,230.6L287.2,232.2L288.4,232.4L289.0,230.8L289.4,229.2L289.6,227.5L289.8,225.9L290.0,224.2L290.5,222.6L291.2,221.1L292.3,219.9L293.7,219.3L295.4,219.6L296.9,220.3L298.5,220.2L299.7,219.2L300.0,217.6L299.6,216.0L299.3,214.3L298.9,212.7Z" fill="#ef4444" fill-opacity="0.30" stroke="#991b1b" stroke-width="1.8"/>
<text x="330.0" y="56" font-size="13" text-anchor="middle" fill="#991b1b" font-weight="bold">2. Papua New Guinea</text>
<text x="330.0" y="252" font-size="12" text-anchor="middle" fill="#555">d=0.192</text>
<path d="M495.1,252.7L495.4,253.4L496.4,252.2L497.3,250.9L498.1,249.6L498.8,248.2L499.6,246.9L500.3,245.5L501.2,244.2L502.3,243.2L503.4,242.1L504.5,240.9L505.5,239.7L506.4,238.5L507.6,237.4L508.5,236.1L509.6,235.0L510.7,233.9L511.8,232.8L512.9,231.7L514.0,230.6L515.1,229.4L516.1,228.3L517.2,227.2L518.3,226.1L519.4,224.9L520.5,223.8L521.6,222.7L522.8,221.7L523.9,220.6L525.2,219.7L526.4,218.7L527.6,217.8L528.8,216.7L529.9,215.6L531.0,214.6L532.3,213.6L533.5,212.7L534.8,211.8L536.1,210.9L537.4,210.0L538.6,209.1L540.0,208.3L541.3,207.5L542.7,206.8L544.1,206.0L545.5,205.3L546.8,204.5L548.2,203.8L549.6,203.0L550.9,202.3L552.2,201.4L553.5,200.4L554.6,199.4L555.8,198.3L556.9,197.2L558.0,196.1L559.1,195.0L560.2,194.0L561.4,192.9L562.5,191.8L563.6,190.7L564.7,189.6L565.8,188.5L566.8,187.3L567.9,186.2L569.0,185.0L570.0,183.9L571.1,182.7L572.2,181.6L573.2,180.4L574.2,179.2L575.3,178.1L576.3,176.9L577.3,175.7L578.4,174.5L579.3,173.3L580.1,171.9L580.8,170.6L581.6,169.2L582.4,167.9L583.3,166.6L584.3,165.4L585.2,164.1L586.2,162.9L587.1,161.6L588.0,160.4L588.8,159.0L589.6,157.7L590.3,156.3L591.1,155.0L591.9,153.6L592.7,152.3L593.0,150.7L593.3,149.2L593.8,147.7L594.4,146.3L594.9,144.8L595.6,143.4L596.3,142.0L597.2,140.7L598.1,139.4L599.0,138.1L599.8,136.8L600.6,135.5L601.3,134.1L601.9,132.6L602.3,131.1L602.8,129.6L603.5,128.3L604.7,127.3L605.8,126.2L606.7,124.9L607.5,123.6L608.2,122.2L608.8,120.8L609.4,119.3L610.1,117.9L610.9,116.6L611.9,115.4L612.8,114.1L613.4,112.7L614.2,111.3L615.1,110.1L615.3,108.6L615.4,107.0L615.5,105.5L615.7,103.9L615.9,102.4L616.0,100.8L616.1,99.3L616.7,97.9L618.1,97.3L619.7,96.8L621.1,97.1L622.4,96.9L621.4,95.9L620.0,95.2L619.4,96.2L618.0,96.6L618.6,95.7L619.1,94.2L619.1,92.6L619.0,91.1L618.9,89.5L618.7,88.0L618.5,86.4L618.3,84.9L618.8,83.4L619.4,81.9L620.0,80.5L620.3,79.0L619.2,78.4L617.7,77.8L616.2,77.3L614.8,76.8L613.3,77.0L612.0,77.8L611.0,79.0L610.1,80.2L608.7,81.0L607.4,81.8L606.0,82.6L604.5,82.9L603.0,83.2L601.4,83.5L599.9,83.7L598.4,84.4L597.0,85.0L595.5,85.4L594.0,85.8L592.5,86.1L590.9,86.3L589.4,86.0L587.9,85.6L586.4,85.5L584.8,85.8L583.4,86.3L581.9,86.9L580.4,87.4L579.0,87.9L577.4,88.1L575.8,88.2L574.3,88.0L572.8,87.6L571.3,87.5L569.8,88.1L568.5,88.9L567.2,89.7L565.9,90.6L564.5,91.3L563.0,91.9L561.6,92.6L560.2,93.1L558.6,93.1L557.1,92.7L555.6,92.5L554.0,92.5L552.5,92.2L550.9,91.9L549.4,92.3L548.0,92.9L546.5,93.5L545.1,94.2L543.7,94.9L542.4,95.6L541.0,96.4L539.6,97.0L538.0,97.1L536.5,97.1L534.9,97.1L533.3,97.1L531.8,96.8L530.5,96.1L529.2,95.1L528.0,94.2L526.7,93.2L525.5,92.2L524.5,91.0L523.5,89.8L522.6,88.6L521.8,87.2L521.0,85.9L520.0,84.7L518.8,83.8L517.7,83.8L516.9,85.1L516.0,86.4L515.2,87.7L514.3,89.0L513.5,90.4L512.5,91.6L511.6,92.8L510.7,94.1L510.8,95.5L511.6,96.9L512.2,98.3L512.7,99.8L513.8,100.9L514.8,102.1L515.6,103.4L517.0,104.1L517.6,105.5L518.3,106.9L519.1,108.3L520.0,109.5L521.0,110.7L522.5,111.2L523.7,112.1L524.8,113.2L526.0,114.2L527.1,115.3L528.5,116.0L530.0,116.5L531.5,117.0L533.0,117.5L534.4,118.0L535.9,118.5L537.4,119.0L538.9,119.4L540.4,119.9L541.9,120.4L543.3,120.9L544.8,121.4L546.3,121.9L547.8,122.4L549.3,122.9L550.7,123.4L552.2,123.9L553.7,124.4L555.2,124.9L556.7,125.4L558.2,125.9L559.6,126.4L561.1,126.9L562.6,127.4L564.1,127.9L565.5,128.4L567.1,128.6L568.6,128.6L570.2,128.6L571.8,128.6L573.3,128.6L574.9,128.6L576.4,128.6L578.0,128.6L578.3,129.1L577.2,130.2L576.1,131.2L575.0,132.3L573.8,133.4L572.7,134.5L571.6,135.6L570.5,136.7L569.3,137.8L568.2,138.9L567.1,140.0L566.0,141.1L564.9,142.1L563.7,143.2L562.6,144.3L561.5,145.4L560.4,146.5L559.2,147.6L558.1,148.7L557.1,149.8L556.0,150.9L554.9,152.0L553.8,153.2L552.7,154.3L551.6,155.4L550.6,156.6L549.5,157.7L548.5,158.9L547.4,160.0L546.3,161.2L545.3,162.3L544.2,163.5L543.2,164.6L542.1,165.8L541.1,166.9L540.0,168.1L538.7,168.6L537.1,168.6L535.5,168.5L534.0,168.4L532.4,168.3L530.9,168.2L529.3,168.1L527.7,168.0L526.2,168.2L524.7,168.6L523.2,168.9L521.6,169.3L520.2,169.9L518.8,170.5L517.4,171.2L516.0,171.9L514.7,172.9L513.8,174.1L513.0,175.5L511.8,176.4L510.3,176.7L508.8,177.0L507.2,177.2L505.7,177.5L504.1,177.6L502.6,178.1L501.3,178.8L500.2,179.9L499.3,181.2L498.4,182.5L497.5,183.7L496.6,185.0L495.7,186.3L494.8,187.6L493.9,188.8L493.0,190.1L491.9,191.3L490.8,192.3L489.7,193.4L488.6,194.5L487.8,195.8L487.8,197.4L487.8,198.9L487.8,200.5L487.8,202.1L487.8,203.6L487.8,205.2L487.8,206.7L487.8,208.3L487.8,209.9L487.8,211.4L487.8,213.0L487.8,214.6L487.8,216.1L487.8,217.7L487.8,219.2L487.8,220.8L487.8,222.4L487.8,223.9L487.8,225.5L487.8,227.1L487.8,228.6L487.8,230.2L487.8,231.7L487.8,233.3L487.8,234.9L487.8,236.4L487.8,238.0L487.8,239.6L487.8,241.1L487.8,242.7L488.6,244.0L489.5,245.2L490.5,246.5L491.4,247.7L492.4,248.9L493.3,250.2L494.3,251.4Z" fill="#9ca3af" fill-opacity="0.45" stroke="#374151" stroke-width="1.5"/>
<path d="M490.7,223.9L491.3,222.2L491.8,220.5L492.3,218.8L492.6,217.0L492.7,215.2L492.8,213.4L493.1,211.7L493.5,209.9L494.0,208.2L494.3,206.4L494.7,204.7L494.8,202.9L494.4,201.1L494.3,199.4L494.8,197.7L495.6,196.0L496.3,194.4L497.1,192.8L497.7,191.1L498.1,189.4L498.5,187.6L498.9,185.8L499.3,184.1L499.6,182.3L500.0,180.6L500.2,178.8L500.9,177.2L502.5,176.5L504.0,175.5L504.3,173.8L504.5,172.0L504.7,170.2L504.6,168.4L504.5,166.6L504.4,164.9L504.2,163.1L503.8,161.3L503.5,159.6L503.0,157.8L502.5,156.1L501.9,154.4L501.3,152.7L500.6,151.1L500.1,149.4L499.5,147.6L500.5,146.7L501.2,145.0L501.4,143.2L502.7,142.2L503.9,141.0L504.8,139.4L505.9,138.0L507.3,136.9L509.0,136.5L510.8,136.4L512.6,136.4L514.4,136.3L516.2,136.2L517.9,136.2L519.6,136.9L521.2,137.7L522.6,138.3L522.5,136.5L521.8,134.9L521.0,133.4L520.9,131.6L521.0,129.8L521.1,128.0L521.2,126.2L520.4,124.7L519.6,123.1L519.4,121.4L519.4,119.6L519.0,117.8L518.7,116.0L518.4,114.3L518.7,112.5L518.6,110.7L518.5,108.9L518.4,107.1L518.5,105.4L519.1,103.7L520.1,102.2L520.7,100.5L520.7,98.8L521.6,97.2L522.7,95.8L524.2,94.8L525.8,94.0L527.3,93.1L529.0,92.6L530.6,92.2L532.3,91.4L534.0,91.2L535.3,92.3L534.4,93.7L534.7,95.3L535.4,97.0L536.6,98.0L537.8,96.7L538.9,95.3L540.0,93.9L540.9,92.3L542.2,91.4L544.0,91.2L544.8,89.6L545.8,88.1L547.2,87.0L548.8,86.2L550.3,85.2L551.6,84.0L552.9,82.8L554.2,81.5L555.7,81.4L556.1,83.1L556.6,84.8L557.3,86.5L557.2,88.0L556.3,89.6L556.2,91.2L557.6,92.4L559.2,93.1L560.6,94.1L561.2,95.8L561.5,97.5L561.8,99.3L562.1,101.0L561.9,102.8L561.6,104.5L561.4,105.9L559.6,105.7L557.8,105.4L556.5,105.6L556.9,107.3L555.7,108.4L553.9,108.5L552.2,108.1L550.7,108.7L551.7,109.7L552.9,110.7L553.8,112.2L555.3,113.3L556.9,113.9L558.4,114.6L558.4,116.4L558.4,118.1L558.0,119.8L559.5,120.5L561.3,120.9L561.2,122.3L560.6,123.9L560.9,125.7L561.6,127.3L562.7,128.7L563.6,130.2L563.5,132.0L563.3,133.8L563.5,135.5L562.8,137.1L562.9,138.9L563.9,139.6L565.1,138.3L566.2,136.9L567.3,135.5L568.5,134.1L570.0,133.4L571.5,132.4L572.5,130.9L572.3,129.1L571.9,127.4L573.3,126.8L574.7,127.8L576.4,127.1L576.2,125.3L575.6,123.9L576.6,122.5L578.1,121.5L579.7,120.7L581.4,120.2L582.2,118.6L583.4,117.3L584.6,116.0L583.9,114.8L583.9,113.2L583.8,111.5L583.2,109.8L582.9,108.0L583.3,106.3L583.8,104.6L584.4,102.9L585.3,101.4L586.8,101.0L587.7,99.4L588.5,97.8L589.7,96.5L591.3,96.0L593.0,95.6L593.8,94.1L592.4,93.1L591.5,91.7L591.1,89.9L590.6,88.2L590.2,86.4L589.7,84.7L589.4,82.9L590.0,81.3L590.7,79.7L591.5,78.1L592.4,76.5L593.2,74.9L594.8,74.1L596.5,74.2L598.0,74.1L597.7,72.5L597.3,71.0L599.1,70.6L600.8,70.3L602.6,70.3L604.2,71.3L605.8,71.9L607.6,72.4L607.9,73.6L607.6,75.4L606.8,76.9L606.0,78.5L605.9,80.3L605.9,82.1L605.7,83.9L605.4,85.6L605.0,87.4L604.3,88.9L604.6,90.4L604.2,91.9L603.4,93.5L603.0,95.3L603.0,97.1L604.1,98.4L605.5,99.6L606.5,101.0L606.5,102.7L606.0,104.4L605.3,106.0L603.6,106.6L602.6,108.0L602.0,109.6L601.0,111.1L599.8,112.4L599.4,114.1L600.7,115.0L602.4,115.3L602.6,117.0L602.5,118.8L603.6,120.0L605.4,120.2L606.2,121.5L605.3,123.0L604.2,124.4L603.5,126.0L604.6,127.4L605.6,128.9L606.3,130.4L604.7,131.1L603.1,131.9L602.2,133.4L601.5,135.0L600.7,136.7L600.4,138.4L600.3,140.2L600.2,142.0L599.9,143.8L599.5,145.5L599.0,147.2L598.4,148.9L597.3,150.3L596.1,151.6L595.4,153.3L595.1,155.0L594.8,156.8L594.0,158.4L592.9,159.7L591.3,160.5L589.6,160.4L587.9,159.6L586.6,158.5L584.9,158.3L583.2,158.7L581.4,159.1L579.7,159.6L578.3,160.6L577.6,162.3L577.0,163.9L576.1,165.5L575.2,167.0L573.8,168.2L572.4,169.3L570.9,170.3L569.6,171.5L568.8,173.1L567.9,174.1L566.4,173.2L564.7,173.5L564.6,175.1L564.9,176.9L564.4,178.6L563.6,180.2L562.5,181.6L561.2,182.8L559.9,184.1L558.5,185.3L558.7,186.8L560.3,187.7L561.9,188.4L563.6,189.1L565.2,189.8L565.3,191.4L564.9,193.2L564.0,194.6L562.6,195.8L561.8,197.4L561.4,199.0L560.1,200.2L561.1,201.5L560.8,202.7L559.4,203.8L557.8,204.6L556.1,205.1L554.4,205.6L552.6,205.8L550.8,205.7L549.1,206.1L547.4,206.7L545.7,207.2L544.0,207.6L542.6,208.8L541.8,210.4L541.7,212.2L541.6,214.0L541.1,215.7L540.8,217.5L540.5,219.2L540.2,221.0L539.5,222.6L538.6,224.1L537.5,225.6L537.1,227.3L536.6,229.0L535.8,230.6L534.4,231.6L532.8,232.4L531.1,233.1L529.5,233.9L527.7,233.6L526.2,234.4L524.9,235.6L523.6,236.8L522.3,238.0L520.9,239.2L519.7,240.5L518.5,241.8L517.2,243.1L516.0,244.5L514.8,245.8L513.5,247.0L512.5,248.4L511.7,250.0L510.6,251.4L509.5,252.9L508.5,254.3L507.3,255.7L505.6,256.1L504.2,257.0L503.4,258.6L502.8,260.3L502.2,262.0L501.1,263.2L499.5,262.5L498.0,261.5L497.0,260.0L496.1,258.5L495.2,256.9L494.4,255.3L494.1,253.6L494.3,251.8L494.5,250.0L494.9,248.3L495.2,246.5L494.4,245.0L493.3,243.5L492.4,242.0L491.6,240.4L490.1,239.4L489.5,238.0L490.1,236.3L490.5,234.6L490.6,232.8L490.5,231.0L490.4,229.2L490.1,227.4L490.3,225.7Z" fill="#ef4444" fill-opacity="0.30" stroke="#991b1b" stroke-width="1.8"/>
<text x="550.0" y="56" font-size="13" text-anchor="middle" fill="#991b1b" font-weight="bold">3. Kyrgyzstan</text>
<text x="550.0" y="252" font-size="12" text-anchor="middle" fill="#555">d=0.198</text>
<path d="M715.1,252.7L715.4,253.4L716.4,252.2L717.3,250.9L718.1,249.6L718.8,248.2L719.6,246.9L720.3,245.5L721.2,244.2L722.3,243.2L723.4,242.1L724.5,240.9L725.5,239.7L726.4,238.5L727.6,237.4L728.5,236.1L729.6,235.0L730.7,233.9L731.8,232.8L732.9,231.7L734.0,230.6L735.1,229.4L736.1,228.3L737.2,227.2L738.3,226.1L739.4,224.9L740.5,223.8L741.6,222.7L742.8,221.7L743.9,220.6L745.2,219.7L746.4,218.7L747.6,217.8L748.8,216.7L749.9,215.6L751.0,214.6L752.3,213.6L753.5,212.7L754.8,211.8L756.1,210.9L757.4,210.0L758.6,209.1L760.0,208.3L761.3,207.5L762.7,206.8L764.1,206.0L765.5,205.3L766.8,204.5L768.2,203.8L769.6,203.0L770.9,202.3L772.2,201.4L773.5,200.4L774.6,199.4L775.8,198.3L776.9,197.2L778.0,196.1L779.1,195.0L780.2,194.0L781.4,192.9L782.5,191.8L783.6,190.7L784.7,189.6L785.8,188.5L786.8,187.3L787.9,186.2L789.0,185.0L790.0,183.9L791.1,182.7L792.2,181.6L793.2,180.4L794.2,179.2L795.3,178.1L796.3,176.9L797.3,175.7L798.4,174.5L799.3,173.3L800.1,171.9L800.8,170.6L801.6,169.2L802.4,167.9L803.3,166.6L804.3,165.4L805.2,164.1L806.2,162.9L807.1,161.6L808.0,160.4L808.8,159.0L809.6,157.7L810.3,156.3L811.1,155.0L811.9,153.6L812.7,152.3L813.0,150.7L813.3,149.2L813.8,147.7L814.4,146.3L814.9,144.8L815.6,143.4L816.3,142.0L817.2,140.7L818.1,139.4L819.0,138.1L819.8,136.8L820.6,135.5L821.3,134.1L821.9,132.6L822.3,131.1L822.8,129.6L823.5,128.3L824.7,127.3L825.8,126.2L826.7,124.9L827.5,123.6L828.2,122.2L828.8,120.8L829.4,119.3L830.1,117.9L830.9,116.6L831.9,115.4L832.8,114.1L833.4,112.7L834.2,111.3L835.1,110.1L835.3,108.6L835.4,107.0L835.5,105.5L835.7,103.9L835.9,102.4L836.0,100.8L836.1,99.3L836.7,97.9L838.1,97.3L839.7,96.8L841.1,97.1L842.4,96.9L841.4,95.9L840.0,95.2L839.4,96.2L838.0,96.6L838.6,95.7L839.1,94.2L839.1,92.6L839.0,91.1L838.9,89.5L838.7,88.0L838.5,86.4L838.3,84.9L838.8,83.4L839.4,81.9L840.0,80.5L840.3,79.0L839.2,78.4L837.7,77.8L836.2,77.3L834.8,76.8L833.3,77.0L832.0,77.8L831.0,79.0L830.1,80.2L828.7,81.0L827.4,81.8L826.0,82.6L824.5,82.9L823.0,83.2L821.4,83.5L819.9,83.7L818.4,84.4L817.0,85.0L815.5,85.4L814.0,85.8L812.5,86.1L810.9,86.3L809.4,86.0L807.9,85.6L806.4,85.5L804.8,85.8L803.4,86.3L801.9,86.9L800.4,87.4L799.0,87.9L797.4,88.1L795.8,88.2L794.3,88.0L792.8,87.6L791.3,87.5L789.8,88.1L788.5,88.9L787.2,89.7L785.9,90.6L784.5,91.3L783.0,91.9L781.6,92.6L780.2,93.1L778.6,93.1L777.1,92.7L775.6,92.5L774.0,92.5L772.5,92.2L770.9,91.9L769.4,92.3L768.0,92.9L766.5,93.5L765.1,94.2L763.7,94.9L762.4,95.6L761.0,96.4L759.6,97.0L758.0,97.1L756.5,97.1L754.9,97.1L753.3,97.1L751.8,96.8L750.5,96.1L749.2,95.1L748.0,94.2L746.7,93.2L745.5,92.2L744.5,91.0L743.5,89.8L742.6,88.6L741.8,87.2L741.0,85.9L740.0,84.7L738.8,83.8L737.7,83.8L736.9,85.1L736.0,86.4L735.2,87.7L734.3,89.0L733.5,90.4L732.5,91.6L731.6,92.8L730.7,94.1L730.8,95.5L731.6,96.9L732.2,98.3L732.7,99.8L733.8,100.9L734.8,102.1L735.6,103.4L737.0,104.1L737.6,105.5L738.3,106.9L739.1,108.3L740.0,109.5L741.0,110.7L742.5,111.2L743.7,112.1L744.8,113.2L746.0,114.2L747.1,115.3L748.5,116.0L750.0,116.5L751.5,117.0L753.0,117.5L754.4,118.0L755.9,118.5L757.4,119.0L758.9,119.4L760.4,119.9L761.9,120.4L763.3,120.9L764.8,121.4L766.3,121.9L767.8,122.4L769.3,122.9L770.7,123.4L772.2,123.9L773.7,124.4L775.2,124.9L776.7,125.4L778.2,125.9L779.6,126.4L781.1,126.9L782.6,127.4L784.1,127.9L785.5,128.4L787.1,128.6L788.6,128.6L790.2,128.6L791.8,128.6L793.3,128.6L794.9,128.6L796.4,128.6L798.0,128.6L798.3,129.1L797.2,130.2L796.1,131.2L795.0,132.3L793.8,133.4L792.7,134.5L791.6,135.6L790.5,136.7L789.3,137.8L788.2,138.9L787.1,140.0L786.0,141.1L784.9,142.1L783.7,143.2L782.6,144.3L781.5,145.4L780.4,146.5L779.2,147.6L778.1,148.7L777.1,149.8L776.0,150.9L774.9,152.0L773.8,153.2L772.7,154.3L771.6,155.4L770.6,156.6L769.5,157.7L768.5,158.9L767.4,160.0L766.3,161.2L765.3,162.3L764.2,163.5L763.2,164.6L762.1,165.8L761.1,166.9L760.0,168.1L758.7,168.6L757.1,168.6L755.5,168.5L754.0,168.4L752.4,168.3L750.9,168.2L749.3,168.1L747.7,168.0L746.2,168.2L744.7,168.6L743.2,168.9L741.6,169.3L740.2,169.9L738.8,170.5L737.4,171.2L736.0,171.9L734.7,172.9L733.8,174.1L733.0,175.5L731.8,176.4L730.3,176.7L728.8,177.0L727.2,177.2L725.7,177.5L724.1,177.6L722.6,178.1L721.3,178.8L720.2,179.9L719.3,181.2L718.4,182.5L717.5,183.7L716.6,185.0L715.7,186.3L714.8,187.6L713.9,188.8L713.0,190.1L711.9,191.3L710.8,192.3L709.7,193.4L708.6,194.5L707.8,195.8L707.8,197.4L707.8,198.9L707.8,200.5L707.8,202.1L707.8,203.6L707.8,205.2L707.8,206.7L707.8,208.3L707.8,209.9L707.8,211.4L707.8,213.0L707.8,214.6L707.8,216.1L707.8,217.7L707.8,219.2L707.8,220.8L707.8,222.4L707.8,223.9L707.8,225.5L707.8,227.1L707.8,228.6L707.8,230.2L707.8,231.7L707.8,233.3L707.8,234.9L707.8,236.4L707.8,238.0L707.8,239.6L707.8,241.1L707.8,242.7L708.6,244.0L709.5,245.2L710.5,246.5L711.4,247.7L712.4,248.9L713.3,250.2L714.3,251.4Z" fill="#9ca3af" fill-opacity="0.45" stroke="#374151" stroke-width="1.5"/>
<path d="M710.5,198.7L709.5,200.4L708.2,201.8L706.8,203.1L705.3,204.4L703.9,205.7L702.4,207.0L701.0,208.3L699.3,209.2L697.4,209.9L695.5,210.1L693.7,210.7L692.1,211.8L691.1,213.5L690.5,215.3L690.4,217.2L691.6,218.5L693.4,218.6L695.2,218.0L697.1,217.6L699.0,217.8L700.9,218.4L702.2,219.9L703.3,221.4L704.3,223.1L705.3,224.8L706.1,226.6L706.8,228.4L707.4,230.2L707.9,232.1L708.5,234.0L709.0,235.9L709.6,237.7L710.3,239.5L711.2,241.3L712.0,243.0L713.5,244.3L715.2,245.3L716.7,246.4L717.9,248.0L719.4,249.0L721.3,249.4L723.1,250.1L724.9,250.9L726.5,249.9L727.9,248.6L729.6,247.6L731.3,246.6L733.0,245.8L734.8,245.1L736.5,244.0L738.1,243.0L739.8,242.0L741.5,241.0L743.1,240.0L744.8,239.0L746.5,238.0L748.1,237.0L749.6,235.7L750.7,234.1L751.4,232.3L752.0,230.5L753.3,229.0L754.8,227.8L756.3,226.5L757.5,225.1L758.8,223.6L760.2,222.2L761.6,220.9L763.2,219.8L765.0,219.0L766.8,218.3L768.6,217.5L770.1,216.3L771.6,215.1L773.0,213.7L774.3,212.3L775.4,210.7L776.5,209.1L777.3,207.3L778.1,205.5L779.0,203.8L780.4,202.4L782.2,201.7L784.0,201.9L785.6,203.0L787.0,204.2L788.0,205.9L787.7,207.8L787.5,209.8L787.7,211.7L788.3,213.5L788.4,215.4L788.6,217.3L790.1,218.2L791.8,217.2L793.2,215.9L794.6,214.5L796.1,213.2L797.0,211.5L797.3,209.6L797.2,207.7L797.8,205.9L799.0,204.3L800.2,202.8L801.4,201.2L802.6,199.7L803.8,198.2L805.0,196.7L806.1,195.1L807.0,193.3L807.8,191.5L808.5,189.7L809.4,188.0L810.4,186.3L811.6,184.8L812.9,183.4L813.9,181.7L814.8,180.0L814.9,178.1L814.1,176.5L812.8,175.1L813.2,173.4L814.1,171.7L814.1,169.7L814.2,167.8L815.1,166.1L815.8,164.4L815.4,162.5L814.2,161.0L812.5,160.5L811.0,161.6L809.7,163.1L808.7,164.7L807.6,166.3L806.6,167.9L804.9,168.9L803.4,169.4L803.6,167.4L803.2,165.6L802.3,163.8L801.2,162.3L800.6,160.4L800.4,158.5L800.8,156.6L802.0,155.1L803.6,154.1L805.5,153.9L807.5,154.0L809.4,154.1L811.4,154.1L813.3,154.2L815.3,154.1L817.1,153.6L818.6,152.3L819.9,150.9L821.2,149.5L822.5,148.0L823.7,146.5L824.9,144.9L824.1,144.4L822.2,144.5L820.6,143.8L819.4,142.2L819.3,140.4L819.6,138.5L819.3,136.7L818.2,135.2L818.0,133.3L817.7,131.4L816.8,129.6L815.6,128.1L814.1,126.9L812.5,125.9L810.6,125.5L808.9,125.8L807.4,127.0L805.5,127.1L803.6,126.6L801.7,126.0L799.9,125.4L798.1,124.5L797.1,122.9L796.5,121.1L795.8,119.2L795.2,117.4L794.5,115.6L794.0,113.7L794.0,111.8L794.0,109.8L794.0,107.9L793.7,105.9L793.4,104.0L793.0,102.1L792.9,100.2L793.2,98.2L793.5,96.3L794.1,94.5L795.3,92.9L795.2,91.1L794.6,89.5L792.6,89.3L791.1,90.3L789.9,91.8L788.9,93.4L788.3,95.3L787.6,97.1L787.2,98.9L787.2,100.9L786.6,102.7L785.3,104.1L784.2,105.6L783.4,107.4L781.9,108.5L780.6,107.2L779.8,105.4L779.7,103.5L779.6,101.5L779.5,99.6L779.4,97.6L779.7,95.7L780.1,93.8L779.7,91.9L779.2,90.0L778.6,88.2L778.0,86.3L777.4,84.4L777.2,82.5L777.9,80.7L778.4,78.8L778.7,76.9L779.3,75.2L780.7,73.8L781.9,72.3L781.7,70.6L780.4,69.1L779.8,67.3L779.2,65.4L778.6,63.6L778.0,61.7L776.7,60.2L775.4,58.8L773.8,57.8L772.0,57.0L770.8,55.7L772.0,54.6L773.8,53.9L775.4,52.8L776.9,51.6L777.1,49.7L777.2,47.8L776.3,46.1L775.1,45.2L773.4,46.1L771.7,47.0L769.9,48.0L768.4,49.1L767.1,50.5L765.7,51.9L764.4,53.3L764.9,54.4L765.8,56.1L766.3,58.0L767.1,59.8L768.2,61.4L769.7,62.6L769.1,63.6L767.5,64.6L766.1,65.9L765.8,67.9L765.5,69.8L765.3,71.7L765.3,73.7L765.4,75.6L765.0,77.5L764.4,79.4L763.0,80.1L761.2,79.8L759.6,78.6L758.1,77.4L756.5,76.6L754.6,77.1L754.2,78.6L754.7,80.5L755.5,82.3L756.7,83.8L757.7,85.4L758.6,87.1L759.5,88.9L760.0,90.7L760.0,92.6L760.7,94.3L762.6,94.1L763.6,92.8L764.1,91.1L765.6,89.8L767.4,89.3L769.3,89.1L770.7,90.5L772.0,91.9L771.8,93.7L770.5,95.1L769.0,96.3L767.9,97.9L767.3,99.7L766.8,101.6L766.6,103.5L766.4,105.5L766.7,107.4L767.3,109.2L768.2,111.0L769.3,112.6L770.3,114.2L771.7,115.6L773.0,117.0L774.8,117.7L776.7,118.2L778.6,118.5L780.5,118.7L782.4,119.3L784.0,118.8L784.1,117.0L784.3,115.1L785.6,114.6L787.3,114.6L788.8,115.2L790.0,116.8L790.9,118.5L791.7,120.3L792.4,122.1L792.8,124.0L793.0,125.9L792.9,127.8L792.2,129.6L791.3,131.3L790.6,133.2L789.9,135.0L789.2,136.8L788.5,138.6L787.5,140.3L786.3,141.8L785.0,143.2L783.1,143.3L781.7,144.1L781.5,146.0L781.0,147.9L780.5,149.8L780.0,151.7L779.5,153.5L778.9,155.4L778.3,157.2L777.7,159.1L777.4,161.0L776.4,162.6L774.7,163.6L772.8,163.8L771.0,164.6L769.1,165.2L767.2,165.5L765.3,165.8L763.6,166.7L762.5,168.2L761.9,170.1L760.6,171.3L758.9,172.3L757.0,172.4L755.1,172.4L753.1,172.0L751.2,171.6L749.4,171.0L747.6,170.3L745.7,169.7L744.1,168.6L742.5,167.6L740.8,167.3L739.0,168.0L737.1,168.8L735.5,169.8L733.9,170.9L732.1,171.6L730.3,172.3L728.5,172.9L726.6,173.6L724.8,174.3L723.0,175.0L721.2,175.7L719.6,176.8L717.9,177.9L716.2,178.8L714.5,179.6L713.3,180.8L713.9,182.7L714.2,184.4L713.1,186.0L712.1,187.6L712.2,189.5L712.8,191.4L712.7,193.3L712.0,195.1L711.3,197.0Z" fill="#ef4444" fill-opacity="0.30" stroke="#991b1b" stroke-width="1.8"/>
<text x="770.0" y="56" font-size="13" text-anchor="middle" fill="#991b1b" font-weight="bold">4. Philippines</text>
<text x="770.0" y="252" font-size="12" text-anchor="middle" fill="#555">d=0.202</text>
<path d="M935.1,252.7L935.4,253.4L936.4,252.2L937.3,250.9L938.1,249.6L938.8,248.2L939.6,246.9L940.3,245.5L941.2,244.2L942.3,243.2L943.4,242.1L944.5,240.9L945.5,239.7L946.4,238.5L947.6,237.4L948.5,236.1L949.6,235.0L950.7,233.9L951.8,232.8L952.9,231.7L954.0,230.6L955.1,229.4L956.1,228.3L957.2,227.2L958.3,226.1L959.4,224.9L960.5,223.8L961.6,222.7L962.8,221.7L963.9,220.6L965.2,219.7L966.4,218.7L967.6,217.8L968.8,216.7L969.9,215.6L971.0,214.6L972.3,213.6L973.5,212.7L974.8,211.8L976.1,210.9L977.4,210.0L978.6,209.1L980.0,208.3L981.3,207.5L982.7,206.8L984.1,206.0L985.5,205.3L986.8,204.5L988.2,203.8L989.6,203.0L990.9,202.3L992.2,201.4L993.5,200.4L994.6,199.4L995.8,198.3L996.9,197.2L998.0,196.1L999.1,195.0L1000.2,194.0L1001.4,192.9L1002.5,191.8L1003.6,190.7L1004.7,189.6L1005.8,188.5L1006.8,187.3L1007.9,186.2L1009.0,185.0L1010.0,183.9L1011.1,182.7L1012.2,181.6L1013.2,180.4L1014.2,179.2L1015.3,178.1L1016.3,176.9L1017.3,175.7L1018.4,174.5L1019.3,173.3L1020.1,171.9L1020.8,170.6L1021.6,169.2L1022.4,167.9L1023.3,166.6L1024.3,165.4L1025.2,164.1L1026.2,162.9L1027.1,161.6L1028.0,160.4L1028.8,159.0L1029.6,157.7L1030.3,156.3L1031.1,155.0L1031.9,153.6L1032.7,152.3L1033.0,150.7L1033.3,149.2L1033.8,147.7L1034.4,146.3L1034.9,144.8L1035.6,143.4L1036.3,142.0L1037.2,140.7L1038.1,139.4L1039.0,138.1L1039.8,136.8L1040.6,135.5L1041.3,134.1L1041.9,132.6L1042.3,131.1L1042.8,129.6L1043.5,128.3L1044.7,127.3L1045.8,126.2L1046.7,124.9L1047.5,123.6L1048.2,122.2L1048.8,120.8L1049.4,119.3L1050.1,117.9L1050.9,116.6L1051.9,115.4L1052.8,114.1L1053.4,112.7L1054.2,111.3L1055.1,110.1L1055.3,108.6L1055.4,107.0L1055.5,105.5L1055.7,103.9L1055.9,102.4L1056.0,100.8L1056.1,99.3L1056.7,97.9L1058.1,97.3L1059.7,96.8L1061.1,97.1L1062.4,96.9L1061.4,95.9L1060.0,95.2L1059.4,96.2L1058.0,96.6L1058.6,95.7L1059.1,94.2L1059.1,92.6L1059.0,91.1L1058.9,89.5L1058.7,88.0L1058.5,86.4L1058.3,84.9L1058.8,83.4L1059.4,81.9L1060.0,80.5L1060.3,79.0L1059.2,78.4L1057.7,77.8L1056.2,77.3L1054.8,76.8L1053.3,77.0L1052.0,77.8L1051.0,79.0L1050.1,80.2L1048.7,81.0L1047.4,81.8L1046.0,82.6L1044.5,82.9L1043.0,83.2L1041.4,83.5L1039.9,83.7L1038.4,84.4L1037.0,85.0L1035.5,85.4L1034.0,85.8L1032.5,86.1L1030.9,86.3L1029.4,86.0L1027.9,85.6L1026.4,85.5L1024.8,85.8L1023.4,86.3L1021.9,86.9L1020.4,87.4L1019.0,87.9L1017.4,88.1L1015.8,88.2L1014.3,88.0L1012.8,87.6L1011.3,87.5L1009.8,88.1L1008.5,88.9L1007.2,89.7L1005.9,90.6L1004.5,91.3L1003.0,91.9L1001.6,92.6L1000.2,93.1L998.6,93.1L997.1,92.7L995.6,92.5L994.0,92.5L992.5,92.2L990.9,91.9L989.4,92.3L988.0,92.9L986.5,93.5L985.1,94.2L983.7,94.9L982.4,95.6L981.0,96.4L979.6,97.0L978.0,97.1L976.5,97.1L974.9,97.1L973.3,97.1L971.8,96.8L970.5,96.1L969.2,95.1L968.0,94.2L966.7,93.2L965.5,92.2L964.5,91.0L963.5,89.8L962.6,88.6L961.8,87.2L961.0,85.9L960.0,84.7L958.8,83.8L957.7,83.8L956.9,85.1L956.0,86.4L955.2,87.7L954.3,89.0L953.5,90.4L952.5,91.6L951.6,92.8L950.7,94.1L950.8,95.5L951.6,96.9L952.2,98.3L952.7,99.8L953.8,100.9L954.8,102.1L955.6,103.4L957.0,104.1L957.6,105.5L958.3,106.9L959.1,108.3L960.0,109.5L961.0,110.7L962.5,111.2L963.7,112.1L964.8,113.2L966.0,114.2L967.1,115.3L968.5,116.0L970.0,116.5L971.5,117.0L973.0,117.5L974.4,118.0L975.9,118.5L977.4,119.0L978.9,119.4L980.4,119.9L981.9,120.4L983.3,120.9L984.8,121.4L986.3,121.9L987.8,122.4L989.3,122.9L990.7,123.4L992.2,123.9L993.7,124.4L995.2,124.9L996.7,125.4L998.2,125.9L999.6,126.4L1001.1,126.9L1002.6,127.4L1004.1,127.9L1005.5,128.4L1007.1,128.6L1008.6,128.6L1010.2,128.6L1011.8,128.6L1013.3,128.6L1014.9,128.6L1016.4,128.6L1018.0,128.6L1018.3,129.1L1017.2,130.2L1016.1,131.2L1015.0,132.3L1013.8,133.4L1012.7,134.5L1011.6,135.6L1010.5,136.7L1009.3,137.8L1008.2,138.9L1007.1,140.0L1006.0,141.1L1004.9,142.1L1003.7,143.2L1002.6,144.3L1001.5,145.4L1000.4,146.5L999.2,147.6L998.1,148.7L997.1,149.8L996.0,150.9L994.9,152.0L993.8,153.2L992.7,154.3L991.6,155.4L990.6,156.6L989.5,157.7L988.5,158.9L987.4,160.0L986.3,161.2L985.3,162.3L984.2,163.5L983.2,164.6L982.1,165.8L981.1,166.9L980.0,168.1L978.7,168.6L977.1,168.6L975.5,168.5L974.0,168.4L972.4,168.3L970.9,168.2L969.3,168.1L967.7,168.0L966.2,168.2L964.7,168.6L963.2,168.9L961.6,169.3L960.2,169.9L958.8,170.5L957.4,171.2L956.0,171.9L954.7,172.9L953.8,174.1L953.0,175.5L951.8,176.4L950.3,176.7L948.8,177.0L947.2,177.2L945.7,177.5L944.1,177.6L942.6,178.1L941.3,178.8L940.2,179.9L939.3,181.2L938.4,182.5L937.5,183.7L936.6,185.0L935.7,186.3L934.8,187.6L933.9,188.8L933.0,190.1L931.9,191.3L930.8,192.3L929.7,193.4L928.6,194.5L927.8,195.8L927.8,197.4L927.8,198.9L927.8,200.5L927.8,202.1L927.8,203.6L927.8,205.2L927.8,206.7L927.8,208.3L927.8,209.9L927.8,211.4L927.8,213.0L927.8,214.6L927.8,216.1L927.8,217.7L927.8,219.2L927.8,220.8L927.8,222.4L927.8,223.9L927.8,225.5L927.8,227.1L927.8,228.6L927.8,230.2L927.8,231.7L927.8,233.3L927.8,234.9L927.8,236.4L927.8,238.0L927.8,239.6L927.8,241.1L927.8,242.7L928.6,244.0L929.5,245.2L930.5,246.5L931.4,247.7L932.4,248.9L933.3,250.2L934.3,251.4Z" fill="#9ca3af" fill-opacity="0.45" stroke="#374151" stroke-width="1.5"/>
<path d="M899.5,222.1L897.1,223.3L896.9,226.0L897.4,228.8L898.2,231.5L900.7,232.6L902.7,234.5L905.5,235.2L908.2,235.9L910.7,235.0L911.3,232.4L910.0,230.0L909.2,227.4L909.1,224.6L910.7,222.5L913.2,221.3L915.9,220.9L918.6,221.1L921.3,220.5L924.1,220.1L926.8,219.2L929.4,218.3L932.1,217.7L934.3,219.4L936.8,220.7L939.4,221.7L942.1,222.4L944.4,221.2L946.8,222.6L949.2,224.0L950.7,226.3L952.5,227.6L955.1,226.6L957.9,226.7L960.7,226.7L963.3,226.3L964.7,224.1L967.4,224.0L970.0,222.8L972.6,221.9L975.3,221.4L978.1,221.6L980.8,221.5L983.6,221.3L985.8,219.7L988.3,219.1L991.1,219.3L993.9,219.5L996.5,218.9L997.2,216.2L998.0,213.8L1000.6,212.7L1003.3,212.0L1006.1,212.1L1008.8,212.8L1011.5,213.3L1014.1,212.5L1016.9,212.1L1019.0,210.4L1020.6,208.1L1022.4,206.0L1024.9,204.8L1027.3,203.4L1029.9,204.3L1032.5,204.3L1035.0,203.3L1037.8,203.2L1040.6,203.0L1043.4,202.8L1043.5,200.0L1042.4,197.5L1041.7,194.9L1042.9,192.3L1044.6,190.3L1047.2,189.2L1048.7,187.0L1049.7,184.4L1050.7,181.8L1051.5,179.1L1052.8,176.8L1055.5,176.1L1058.2,175.6L1060.1,173.7L1060.7,171.5L1059.5,168.9L1059.9,166.7L1061.7,165.5L1062.7,163.0L1065.2,162.2L1067.6,163.5L1068.7,163.5L1066.7,161.5L1065.1,159.3L1063.9,156.8L1062.9,154.2L1061.9,151.5L1060.0,149.8L1057.5,148.4L1055.8,146.2L1054.1,144.1L1052.0,142.2L1050.1,140.2L1047.5,140.0L1044.8,140.5L1042.0,140.2L1039.7,139.6L1039.1,136.9L1041.1,135.3L1043.7,136.3L1046.3,137.2L1049.1,136.9L1049.3,134.1L1047.9,132.2L1045.8,130.5L1044.1,128.3L1042.9,125.8L1042.0,123.1L1041.1,120.5L1040.1,117.9L1037.7,116.9L1035.1,117.8L1034.4,120.5L1033.4,120.3L1032.1,117.8L1030.3,115.9L1027.6,116.4L1024.8,117.0L1022.1,117.3L1019.4,118.2L1016.8,118.8L1014.1,118.0L1011.4,117.2L1008.7,117.0L1006.1,117.9L1004.5,119.5L1002.3,117.9L999.9,116.4L997.3,115.4L995.1,113.8L992.7,112.5L990.0,112.1L987.4,111.8L984.9,110.6L985.1,108.3L987.5,107.5L990.3,107.5L991.7,105.9L991.6,103.5L994.4,104.1L996.5,105.9L998.8,107.4L1001.3,108.7L1004.0,109.5L1006.6,110.3L1009.3,111.1L1011.8,112.4L1014.2,113.8L1016.6,115.2L1019.3,115.9L1021.8,115.4L1023.7,113.4L1025.4,111.1L1028.0,110.5L1030.5,111.5L1032.8,111.0L1033.9,108.4L1035.1,105.9L1037.2,104.1L1039.4,102.3L1039.8,99.8L1037.4,98.4L1035.5,96.4L1034.7,93.8L1032.4,92.5L1030.2,90.7L1028.0,89.0L1026.7,86.5L1025.3,84.1L1024.8,81.3L1026.4,79.1L1027.9,76.9L1027.8,74.1L1026.9,71.6L1025.5,69.1L1024.1,66.7L1022.4,64.5L1020.4,62.5L1018.8,62.5L1018.1,65.2L1017.8,67.9L1017.0,70.4L1014.4,71.4L1012.8,69.4L1011.5,67.0L1009.3,65.4L1007.8,63.1L1006.3,60.7L1005.8,58.1L1005.9,55.3L1005.0,52.9L1002.8,51.6L1002.8,54.4L1002.2,57.1L1001.0,59.6L999.9,62.2L997.6,63.3L994.8,63.2L993.7,60.6L992.2,58.3L990.4,56.1L988.6,54.1L986.3,52.4L984.3,52.0L985.4,54.6L986.7,57.1L987.3,59.6L986.8,62.3L987.0,65.1L987.8,67.8L988.7,70.4L989.8,73.0L990.9,75.6L992.0,78.2L993.1,80.7L994.7,83.0L995.7,85.5L996.3,88.3L995.2,90.6L993.1,88.8L990.4,88.2L988.0,86.8L986.3,84.9L985.3,82.6L982.9,83.0L980.4,84.2L977.8,85.1L975.6,86.3L977.1,88.5L978.5,90.8L981.2,91.1L983.7,92.1L984.8,94.7L985.1,97.4L986.6,99.7L987.8,101.6L985.3,102.8L982.8,103.8L980.0,104.3L977.4,105.1L974.9,106.3L972.7,104.8L970.7,102.8L968.7,100.8L966.6,98.9L964.7,97.0L962.9,94.8L960.7,94.9L960.1,97.6L960.4,100.3L960.9,103.1L961.2,105.9L961.4,108.7L961.7,111.4L962.6,114.0L964.8,115.6L967.4,116.6L970.1,117.1L972.0,119.0L973.6,121.3L976.0,122.4L978.7,122.9L980.6,124.8L982.2,127.1L984.7,127.8L987.1,129.0L989.4,130.5L992.1,131.3L994.8,132.1L997.1,133.5L999.8,134.2L1000.0,135.4L997.2,135.7L994.5,136.0L991.9,137.2L989.7,138.9L988.0,140.6L990.6,140.6L991.3,143.2L992.9,145.6L993.9,148.1L991.7,149.8L989.2,150.2L986.7,148.9L985.2,146.9L986.1,144.4L984.7,142.8L982.3,144.1L981.1,146.2L981.8,148.9L983.2,151.3L984.9,153.5L986.6,155.7L988.8,157.5L990.8,159.3L992.3,161.7L993.3,164.3L994.3,166.9L996.1,169.1L997.9,171.2L999.6,173.4L1000.9,175.8L1001.2,178.5L1000.7,181.3L1000.1,184.0L999.6,186.7L999.9,189.5L998.3,191.3L995.9,192.7L993.4,193.7L992.7,192.4L993.9,190.1L992.9,187.5L990.5,186.0L988.2,184.5L985.7,183.2L983.2,181.9L981.7,180.0L981.3,177.2L980.2,174.7L978.2,173.0L975.6,172.0L973.0,171.4L973.2,173.2L975.5,174.8L977.7,176.5L979.0,179.0L979.7,181.6L977.6,182.6L974.8,182.0L972.3,181.2L970.7,178.9L969.1,176.6L967.4,174.4L965.0,172.9L963.5,175.0L964.4,177.6L966.3,179.6L968.6,181.2L970.5,183.2L970.4,185.5L967.9,186.5L965.2,185.9L962.7,184.7L960.1,183.9L958.0,182.1L955.9,180.3L955.0,180.4L956.3,182.9L957.9,185.1L960.3,186.6L962.7,188.0L965.5,187.9L967.7,189.2L967.6,191.7L968.2,193.9L970.1,196.0L970.5,198.6L968.5,199.6L965.7,199.7L963.0,199.2L960.4,199.8L958.0,201.2L956.2,203.3L954.4,205.4L952.0,206.8L949.3,206.3L947.0,204.7L944.3,204.1L941.9,205.2L939.7,206.8L937.3,208.3L934.7,208.6L932.3,207.3L929.6,207.4L927.0,206.4L924.3,205.6L921.5,205.3L918.8,205.0L916.0,204.6L913.5,203.3L911.3,201.7L909.3,201.6L907.7,203.8L906.0,206.0L904.2,208.2L903.0,210.6L903.8,213.2L904.0,216.0L904.0,218.8L901.7,220.4Z" fill="#ef4444" fill-opacity="0.30" stroke="#991b1b" stroke-width="1.8"/>
<text x="990.0" y="56" font-size="13" text-anchor="middle" fill="#991b1b" font-weight="bold">5. Greece</text>
<text x="990.0" y="252" font-size="12" text-anchor="middle" fill="#555">d=0.212</text>
<path d="M55.1,472.7L55.4,473.4L56.4,472.2L57.3,470.9L58.1,469.6L58.8,468.2L59.6,466.9L60.3,465.5L61.2,464.2L62.3,463.2L63.4,462.1L64.5,460.9L65.5,459.7L66.4,458.5L67.6,457.4L68.5,456.1L69.6,455.0L70.7,453.9L71.8,452.8L72.9,451.7L74.0,450.6L75.1,449.4L76.1,448.3L77.2,447.2L78.3,446.1L79.4,444.9L80.5,443.8L81.6,442.7L82.8,441.7L83.9,440.6L85.2,439.7L86.4,438.7L87.6,437.8L88.8,436.7L89.9,435.6L91.0,434.6L92.3,433.6L93.5,432.7L94.8,431.8L96.1,430.9L97.4,430.0L98.6,429.1L100.0,428.3L101.3,427.5L102.7,426.8L104.1,426.0L105.5,425.3L106.8,424.5L108.2,423.8L109.6,423.0L110.9,422.3L112.2,421.4L113.5,420.4L114.6,419.4L115.8,418.3L116.9,417.2L118.0,416.1L119.1,415.0L120.2,414.0L121.4,412.9L122.5,411.8L123.6,410.7L124.7,409.6L125.8,408.5L126.8,407.3L127.9,406.2L129.0,405.0L130.0,403.9L131.1,402.7L132.2,401.6L133.2,400.4L134.2,399.2L135.3,398.1L136.3,396.9L137.3,395.7L138.4,394.5L139.3,393.3L140.1,391.9L140.8,390.6L141.6,389.2L142.4,387.9L143.3,386.6L144.3,385.4L145.2,384.1L146.2,382.9L147.1,381.6L148.0,380.4L148.8,379.0L149.6,377.7L150.3,376.3L151.1,375.0L151.9,373.6L152.7,372.3L153.0,370.7L153.3,369.2L153.8,367.7L154.4,366.3L154.9,364.8L155.6,363.4L156.3,362.0L157.2,360.7L158.1,359.4L159.0,358.1L159.8,356.8L160.6,355.5L161.3,354.1L161.9,352.6L162.3,351.1L162.8,349.6L163.5,348.3L164.7,347.3L165.8,346.2L166.7,344.9L167.5,343.6L168.2,342.2L168.8,340.8L169.4,339.3L170.1,337.9L170.9,336.6L171.9,335.4L172.8,334.1L173.4,332.7L174.2,331.3L175.1,330.1L175.3,328.6L175.4,327.0L175.5,325.5L175.7,323.9L175.9,322.4L176.0,320.8L176.1,319.3L176.7,317.9L178.1,317.3L179.7,316.8L181.1,317.1L182.4,316.9L181.4,315.9L180.0,315.2L179.4,316.2L178.0,316.6L178.6,315.7L179.1,314.2L179.1,312.6L179.0,311.1L178.9,309.5L178.7,308.0L178.5,306.4L178.3,304.9L178.8,303.4L179.4,301.9L180.0,300.5L180.3,299.0L179.2,298.4L177.7,297.8L176.2,297.3L174.8,296.8L173.3,297.0L172.0,297.8L171.0,299.0L170.1,300.2L168.7,301.0L167.4,301.8L166.0,302.6L164.5,302.9L163.0,303.2L161.4,303.5L159.9,303.7L158.4,304.4L157.0,305.0L155.5,305.4L154.0,305.8L152.5,306.1L150.9,306.3L149.4,306.0L147.9,305.6L146.4,305.5L144.8,305.8L143.4,306.3L141.9,306.9L140.4,307.4L139.0,307.9L137.4,308.1L135.8,308.2L134.3,308.0L132.8,307.6L131.3,307.5L129.8,308.1L128.5,308.9L127.2,309.7L125.9,310.6L124.5,311.3L123.0,311.9L121.6,312.6L120.2,313.1L118.6,313.1L117.1,312.7L115.6,312.5L114.0,312.5L112.5,312.2L110.9,311.9L109.4,312.3L108.0,312.9L106.5,313.5L105.1,314.2L103.7,314.9L102.4,315.6L101.0,316.4L99.6,317.0L98.0,317.1L96.5,317.1L94.9,317.1L93.3,317.1L91.8,316.8L90.5,316.1L89.2,315.1L88.0,314.2L86.7,313.2L85.5,312.2L84.5,311.0L83.5,309.8L82.6,308.6L81.8,307.2L81.0,305.9L80.0,304.7L78.8,303.8L77.7,303.8L76.9,305.1L76.0,306.4L75.2,307.7L74.3,309.0L73.5,310.4L72.5,311.6L71.6,312.8L70.7,314.1L70.8,315.5L71.6,316.9L72.2,318.3L72.7,319.8L73.8,320.9L74.8,322.1L75.6,323.4L77.0,324.1L77.6,325.5L78.3,326.9L79.1,328.3L80.0,329.5L81.0,330.7L82.5,331.2L83.7,332.1L84.8,333.2L86.0,334.2L87.1,335.3L88.5,336.0L90.0,336.5L91.5,337.0L93.0,337.5L94.4,338.0L95.9,338.5L97.4,339.0L98.9,339.4L100.4,339.9L101.9,340.4L103.3,340.9L104.8,341.4L106.3,341.9L107.8,342.4L109.3,342.9L110.7,343.4L112.2,343.9L113.7,344.4L115.2,344.9L116.7,345.4L118.2,345.9L119.6,346.4L121.1,346.9L122.6,347.4L124.1,347.9L125.5,348.4L127.1,348.6L128.6,348.6L130.2,348.6L131.8,348.6L133.3,348.6L134.9,348.6L136.4,348.6L138.0,348.6L138.3,349.1L137.2,350.2L136.1,351.2L135.0,352.3L133.8,353.4L132.7,354.5L131.6,355.6L130.5,356.7L129.3,357.8L128.2,358.9L127.1,360.0L126.0,361.1L124.9,362.1L123.7,363.2L122.6,364.3L121.5,365.4L120.4,366.5L119.2,367.6L118.1,368.7L117.1,369.8L116.0,370.9L114.9,372.0L113.8,373.2L112.7,374.3L111.6,375.4L110.6,376.6L109.5,377.7L108.5,378.9L107.4,380.0L106.3,381.2L105.3,382.3L104.2,383.5L103.2,384.6L102.1,385.8L101.1,386.9L100.0,388.1L98.7,388.6L97.1,388.6L95.5,388.5L94.0,388.4L92.4,388.3L90.9,388.2L89.3,388.1L87.7,388.0L86.2,388.2L84.7,388.6L83.2,388.9L81.6,389.3L80.2,389.9L78.8,390.5L77.4,391.2L76.0,391.9L74.7,392.9L73.8,394.1L73.0,395.5L71.8,396.4L70.3,396.7L68.8,397.0L67.2,397.2L65.7,397.5L64.1,397.6L62.6,398.1L61.3,398.8L60.2,399.9L59.3,401.2L58.4,402.5L57.5,403.7L56.6,405.0L55.7,406.3L54.8,407.6L53.9,408.8L53.0,410.1L51.9,411.3L50.8,412.3L49.7,413.4L48.6,414.5L47.8,415.8L47.8,417.4L47.8,418.9L47.8,420.5L47.8,422.1L47.8,423.6L47.8,425.2L47.8,426.7L47.8,428.3L47.8,429.9L47.8,431.4L47.8,433.0L47.8,434.6L47.8,436.1L47.8,437.7L47.8,439.2L47.8,440.8L47.8,442.4L47.8,443.9L47.8,445.5L47.8,447.1L47.8,448.6L47.8,450.2L47.8,451.7L47.8,453.3L47.8,454.9L47.8,456.4L47.8,458.0L47.8,459.6L47.8,461.1L47.8,462.7L48.6,464.0L49.5,465.2L50.5,466.5L51.4,467.7L52.4,468.9L53.3,470.2L54.3,471.4Z" fill="#9ca3af" fill-opacity="0.45" stroke="#374151" stroke-width="1.5"/>
<path d="M130.6,388.2L128.8,388.6L127.2,389.4L125.7,390.4L124.2,391.6L122.8,392.7L121.2,393.7L119.7,394.7L118.0,395.5L116.6,396.6L115.5,398.1L114.2,399.4L114.0,401.1L113.3,402.6L111.6,402.6L110.0,402.8L108.7,404.2L107.4,405.3L105.6,405.7L103.7,405.9L101.9,406.1L100.5,407.2L99.6,408.9L98.8,410.5L98.0,412.2L97.4,413.9L97.3,415.7L96.2,417.1L94.6,418.1L93.7,419.7L92.6,421.0L91.0,421.5L90.7,423.3L90.3,425.1L89.8,426.9L89.4,428.6L88.9,430.4L88.5,432.2L88.0,434.0L87.6,435.8L87.1,437.6L87.0,439.4L85.3,440.1L83.5,440.6L81.7,441.1L80.0,441.7L78.2,442.4L76.5,443.0L75.0,444.0L73.2,444.2L71.3,444.4L69.5,444.6L67.7,444.8L65.9,445.3L64.2,445.9L62.4,446.4L60.8,447.3L59.3,448.3L57.7,449.3L56.2,450.3L54.6,451.3L53.1,452.4L51.6,453.4L50.0,454.4L48.9,455.9L47.3,456.8L45.6,456.4L44.1,457.2L42.7,458.4L41.0,459.1L39.3,459.8L37.7,460.8L36.5,460.6L35.2,459.3L34.2,457.7L33.2,456.2L32.2,454.6L33.3,453.4L34.7,452.3L36.2,451.2L37.6,450.0L39.1,448.8L39.0,449.8L38.7,451.0L40.4,451.4L42.3,451.4L43.1,449.8L44.0,448.2L44.9,446.6L45.2,444.8L45.3,443.0L45.3,441.1L45.2,439.3L44.9,437.5L44.5,435.7L44.2,433.9L43.7,432.1L43.2,430.3L42.7,428.5L42.3,426.7L41.8,424.9L41.5,423.1L41.2,421.3L41.1,419.4L41.2,417.6L41.7,415.9L42.4,414.1L43.2,412.5L44.3,411.0L45.6,409.7L46.2,410.1L47.4,410.7L48.7,409.4L50.0,408.1L51.3,406.7L52.5,405.4L53.6,403.9L55.1,402.9L56.8,402.3L58.3,401.3L59.6,400.0L61.1,398.9L62.8,398.2L62.9,399.3L61.4,400.5L61.0,401.5L62.5,400.8L64.0,399.7L65.6,398.8L67.3,398.0L68.9,397.2L70.7,396.7L72.5,396.5L74.1,395.6L75.8,394.9L77.6,394.4L79.3,393.8L81.2,393.8L83.0,394.1L84.8,394.0L86.3,392.9L87.6,391.6L89.1,390.5L90.6,389.4L92.3,389.2L91.8,388.6L90.1,388.0L89.8,386.2L90.0,384.4L90.1,382.5L90.3,380.7L90.8,378.9L91.3,377.1L91.7,375.3L91.9,373.5L92.0,371.7L91.8,369.8L90.8,368.4L91.9,367.2L90.6,366.4L91.5,364.9L92.2,363.1L92.5,361.3L92.9,359.5L93.4,357.8L94.3,356.2L94.9,354.5L95.0,352.7L95.2,350.8L95.1,349.0L95.0,347.1L94.8,345.3L94.7,343.5L94.2,341.7L94.0,339.9L93.7,338.1L93.2,336.3L92.7,334.6L92.3,332.8L91.4,331.2L90.8,329.5L90.4,327.8L90.9,326.0L90.9,324.2L90.7,322.3L90.5,320.5L90.6,318.7L90.6,317.0L92.1,316.3L91.6,314.6L92.0,312.8L93.0,311.4L93.4,309.6L93.7,307.8L94.2,306.0L94.7,304.2L95.4,302.5L96.4,301.0L98.0,300.2L98.6,298.8L99.5,297.2L100.0,295.6L101.6,294.7L103.1,293.8L103.8,294.9L104.2,295.5L105.2,294.1L106.4,293.1L108.0,293.4L109.5,292.3L111.0,291.3L112.6,290.4L114.2,289.4L115.4,288.1L116.9,287.2L118.4,286.1L119.7,286.2L120.9,286.0L121.2,284.3L122.5,283.0L124.2,282.6L125.5,281.7L127.1,280.8L128.5,279.7L129.9,278.6L131.6,277.9L133.4,277.3L134.7,276.0L136.4,275.4L137.4,274.1L138.2,272.4L139.7,271.6L140.3,269.9L141.7,270.2L142.0,268.6L143.8,268.7L144.8,269.4L144.8,271.3L144.7,273.1L144.7,275.0L144.8,276.8L145.1,278.6L145.8,280.4L146.3,282.1L146.4,283.9L146.9,285.7L147.8,287.3L148.6,288.9L149.1,290.7L149.2,292.5L149.3,294.4L150.9,295.2L152.4,296.3L153.5,297.7L154.5,299.3L153.8,300.9L153.1,302.5L153.2,304.4L153.6,306.2L154.4,307.8L155.7,309.1L157.4,309.8L158.7,311.0L159.3,312.7L159.4,314.5L160.2,316.2L161.3,317.7L162.7,318.8L164.4,318.9L166.1,319.7L167.4,321.0L167.4,322.7L167.7,324.5L168.9,325.9L170.0,327.4L171.1,328.9L172.1,330.4L173.1,331.9L174.0,333.6L173.0,335.0L172.0,336.6L171.2,338.3L170.5,340.0L169.0,340.9L167.2,341.5L165.5,342.1L163.8,342.8L162.1,343.7L160.5,344.5L158.9,345.4L157.3,346.3L155.5,346.5L154.1,345.5L152.6,344.4L150.8,344.0L148.9,343.8L147.1,343.5L145.3,343.4L143.4,343.3L141.6,343.2L139.7,343.2L137.9,343.1L136.0,343.1L134.3,343.5L132.6,344.1L131.6,345.6L130.2,346.9L128.7,347.9L127.1,348.9L125.7,350.0L124.2,351.2L122.8,352.4L121.9,353.9L122.3,355.7L123.2,357.3L123.3,359.0L122.3,360.6L121.3,362.1L119.7,362.7L118.0,363.2L116.4,364.1L114.8,365.1L115.2,366.7L116.8,367.1L117.7,365.7L119.3,366.0L121.0,366.4L122.9,366.6L124.7,366.9L126.5,367.2L128.3,367.6L130.0,367.4L131.6,366.7L133.4,366.9L134.6,365.8L135.2,364.1L136.3,362.6L137.2,361.0L138.3,359.6L139.7,358.4L141.3,357.4L142.9,356.6L144.6,355.8L146.4,355.6L148.0,356.1L148.8,357.8L149.3,359.6L150.1,361.2L150.9,362.9L151.8,364.0L153.6,364.3L155.4,364.4L157.3,364.3L159.1,364.2L159.8,365.8L160.3,367.6L160.8,369.3L161.3,371.1L161.8,372.9L162.3,374.7L162.8,376.5L163.3,378.2L163.8,380.0L164.2,381.8L164.6,383.6L165.0,385.4L165.6,387.2L166.1,388.9L166.7,390.7L167.2,392.5L167.8,394.2L168.3,396.0L168.6,397.8L169.0,399.6L168.1,400.9L166.3,401.4L164.5,401.5L162.8,402.3L161.1,403.1L159.6,404.1L158.0,405.0L156.8,403.8L155.7,402.3L154.6,400.8L153.5,399.3L152.5,397.8L151.0,396.8L149.3,396.1L147.9,394.8L146.4,393.9L144.6,393.4L143.0,392.6L141.9,391.2L140.7,389.8L139.2,388.7L137.7,387.7L135.9,387.1L134.6,385.9L133.3,385.9L132.3,387.3Z" fill="#ef4444" fill-opacity="0.30" stroke="#991b1b" stroke-width="1.8"/>
<text x="110.0" y="276" font-size="13" text-anchor="middle" fill="#991b1b" font-weight="bold">6. Mozambique</text>
<text x="110.0" y="472" font-size="12" text-anchor="middle" fill="#555">d=0.256</text>
<path d="M275.1,472.7L275.4,473.4L276.4,472.2L277.3,470.9L278.1,469.6L278.8,468.2L279.6,466.9L280.3,465.5L281.2,464.2L282.3,463.2L283.4,462.1L284.5,460.9L285.5,459.7L286.4,458.5L287.6,457.4L288.5,456.1L289.6,455.0L290.7,453.9L291.8,452.8L292.9,451.7L294.0,450.6L295.1,449.4L296.1,448.3L297.2,447.2L298.3,446.1L299.4,444.9L300.5,443.8L301.6,442.7L302.8,441.7L303.9,440.6L305.2,439.7L306.4,438.7L307.6,437.8L308.8,436.7L309.9,435.6L311.0,434.6L312.3,433.6L313.5,432.7L314.8,431.8L316.1,430.9L317.4,430.0L318.6,429.1L320.0,428.3L321.3,427.5L322.7,426.8L324.1,426.0L325.5,425.3L326.8,424.5L328.2,423.8L329.6,423.0L330.9,422.3L332.2,421.4L333.5,420.4L334.6,419.4L335.8,418.3L336.9,417.2L338.0,416.1L339.1,415.0L340.2,414.0L341.4,412.9L342.5,411.8L343.6,410.7L344.7,409.6L345.8,408.5L346.8,407.3L347.9,406.2L349.0,405.0L350.0,403.9L351.1,402.7L352.2,401.6L353.2,400.4L354.2,399.2L355.3,398.1L356.3,396.9L357.3,395.7L358.4,394.5L359.3,393.3L360.1,391.9L360.8,390.6L361.6,389.2L362.4,387.9L363.3,386.6L364.3,385.4L365.2,384.1L366.2,382.9L367.1,381.6L368.0,380.4L368.8,379.0L369.6,377.7L370.3,376.3L371.1,375.0L371.9,373.6L372.7,372.3L373.0,370.7L373.3,369.2L373.8,367.7L374.4,366.3L374.9,364.8L375.6,363.4L376.3,362.0L377.2,360.7L378.1,359.4L379.0,358.1L379.8,356.8L380.6,355.5L381.3,354.1L381.9,352.6L382.3,351.1L382.8,349.6L383.5,348.3L384.7,347.3L385.8,346.2L386.7,344.9L387.5,343.6L388.2,342.2L388.8,340.8L389.4,339.3L390.1,337.9L390.9,336.6L391.9,335.4L392.8,334.1L393.4,332.7L394.2,331.3L395.1,330.1L395.3,328.6L395.4,327.0L395.5,325.5L395.7,323.9L395.9,322.4L396.0,320.8L396.1,319.3L396.7,317.9L398.1,317.3L399.7,316.8L401.1,317.1L402.4,316.9L401.4,315.9L400.0,315.2L399.4,316.2L398.0,316.6L398.6,315.7L399.1,314.2L399.1,312.6L399.0,311.1L398.9,309.5L398.7,308.0L398.5,306.4L398.3,304.9L398.8,303.4L399.4,301.9L400.0,300.5L400.3,299.0L399.2,298.4L397.7,297.8L396.2,297.3L394.8,296.8L393.3,297.0L392.0,297.8L391.0,299.0L390.1,300.2L388.7,301.0L387.4,301.8L386.0,302.6L384.5,302.9L383.0,303.2L381.4,303.5L379.9,303.7L378.4,304.4L377.0,305.0L375.5,305.4L374.0,305.8L372.5,306.1L370.9,306.3L369.4,306.0L367.9,305.6L366.4,305.5L364.8,305.8L363.4,306.3L361.9,306.9L360.4,307.4L359.0,307.9L357.4,308.1L355.8,308.2L354.3,308.0L352.8,307.6L351.3,307.5L349.8,308.1L348.5,308.9L347.2,309.7L345.9,310.6L344.5,311.3L343.0,311.9L341.6,312.6L340.2,313.1L338.6,313.1L337.1,312.7L335.6,312.5L334.0,312.5L332.5,312.2L330.9,311.9L329.4,312.3L328.0,312.9L326.5,313.5L325.1,314.2L323.7,314.9L322.4,315.6L321.0,316.4L319.6,317.0L318.0,317.1L316.5,317.1L314.9,317.1L313.3,317.1L311.8,316.8L310.5,316.1L309.2,315.1L308.0,314.2L306.7,313.2L305.5,312.2L304.5,311.0L303.5,309.8L302.6,308.6L301.8,307.2L301.0,305.9L300.0,304.7L298.8,303.8L297.7,303.8L296.9,305.1L296.0,306.4L295.2,307.7L294.3,309.0L293.5,310.4L292.5,311.6L291.6,312.8L290.7,314.1L290.8,315.5L291.6,316.9L292.2,318.3L292.7,319.8L293.8,320.9L294.8,322.1L295.6,323.4L297.0,324.1L297.6,325.5L298.3,326.9L299.1,328.3L300.0,329.5L301.0,330.7L302.5,331.2L303.7,332.1L304.8,333.2L306.0,334.2L307.1,335.3L308.5,336.0L310.0,336.5L311.5,337.0L313.0,337.5L314.4,338.0L315.9,338.5L317.4,339.0L318.9,339.4L320.4,339.9L321.9,340.4L323.3,340.9L324.8,341.4L326.3,341.9L327.8,342.4L329.3,342.9L330.7,343.4L332.2,343.9L333.7,344.4L335.2,344.9L336.7,345.4L338.2,345.9L339.6,346.4L341.1,346.9L342.6,347.4L344.1,347.9L345.5,348.4L347.1,348.6L348.6,348.6L350.2,348.6L351.8,348.6L353.3,348.6L354.9,348.6L356.4,348.6L358.0,348.6L358.3,349.1L357.2,350.2L356.1,351.2L355.0,352.3L353.8,353.4L352.7,354.5L351.6,355.6L350.5,356.7L349.3,357.8L348.2,358.9L347.1,360.0L346.0,361.1L344.9,362.1L343.7,363.2L342.6,364.3L341.5,365.4L340.4,366.5L339.2,367.6L338.1,368.7L337.1,369.8L336.0,370.9L334.9,372.0L333.8,373.2L332.7,374.3L331.6,375.4L330.6,376.6L329.5,377.7L328.5,378.9L327.4,380.0L326.3,381.2L325.3,382.3L324.2,383.5L323.2,384.6L322.1,385.8L321.1,386.9L320.0,388.1L318.7,388.6L317.1,388.6L315.5,388.5L314.0,388.4L312.4,388.3L310.9,388.2L309.3,388.1L307.7,388.0L306.2,388.2L304.7,388.6L303.2,388.9L301.6,389.3L300.2,389.9L298.8,390.5L297.4,391.2L296.0,391.9L294.7,392.9L293.8,394.1L293.0,395.5L291.8,396.4L290.3,396.7L288.8,397.0L287.2,397.2L285.7,397.5L284.1,397.6L282.6,398.1L281.3,398.8L280.2,399.9L279.3,401.2L278.4,402.5L277.5,403.7L276.6,405.0L275.7,406.3L274.8,407.6L273.9,408.8L273.0,410.1L271.9,411.3L270.8,412.3L269.7,413.4L268.6,414.5L267.8,415.8L267.8,417.4L267.8,418.9L267.8,420.5L267.8,422.1L267.8,423.6L267.8,425.2L267.8,426.7L267.8,428.3L267.8,429.9L267.8,431.4L267.8,433.0L267.8,434.6L267.8,436.1L267.8,437.7L267.8,439.2L267.8,440.8L267.8,442.4L267.8,443.9L267.8,445.5L267.8,447.1L267.8,448.6L267.8,450.2L267.8,451.7L267.8,453.3L267.8,454.9L267.8,456.4L267.8,458.0L267.8,459.6L267.8,461.1L267.8,462.7L268.6,464.0L269.5,465.2L270.5,466.5L271.4,467.7L272.4,468.9L273.3,470.2L274.3,471.4Z" fill="#9ca3af" fill-opacity="0.45" stroke="#374151" stroke-width="1.5"/>
<path d="M330.6,413.0L328.2,413.6L325.8,414.1L323.3,414.4L320.9,413.7L319.2,411.9L316.9,411.3L314.4,411.2L311.9,411.1L309.5,411.5L309.6,411.9L312.1,411.8L314.5,412.3L316.3,413.9L317.5,416.1L319.4,417.5L321.3,418.9L321.0,421.0L318.6,421.7L316.3,421.3L314.1,420.1L314.1,420.6L315.7,422.5L317.9,423.6L319.9,425.1L321.0,427.3L321.7,429.7L322.3,432.1L323.1,434.5L323.4,437.0L323.7,439.5L323.7,441.9L323.7,444.4L324.3,446.9L325.1,449.2L324.2,451.4L322.5,453.1L320.2,453.8L317.9,452.7L315.5,452.2L313.1,451.6L310.6,451.0L308.4,450.0L305.9,450.2L303.6,449.3L301.5,447.9L299.6,446.3L297.5,445.1L296.2,445.8L296.9,448.2L298.0,450.4L296.4,451.2L295.8,453.2L297.0,455.3L298.4,457.3L299.7,459.4L301.1,461.6L302.6,463.5L303.7,465.8L303.4,468.2L303.4,470.7L301.8,471.6L299.5,470.7L297.3,469.7L295.0,468.6L292.8,467.6L290.4,466.8L288.3,465.5L286.4,466.0L284.6,464.3L282.6,465.3L280.4,464.6L280.2,462.2L280.6,459.7L281.9,457.7L279.6,457.0L278.2,455.4L278.3,453.0L279.4,451.1L281.4,449.6L280.8,448.9L278.8,447.9L276.6,447.2L276.1,444.7L276.1,442.3L277.5,440.3L277.6,439.3L276.3,437.2L277.6,435.4L279.5,433.9L280.5,431.8L280.5,429.4L279.8,427.0L278.4,425.0L280.1,423.8L278.6,421.8L276.5,420.6L277.0,419.3L278.6,418.2L280.5,416.8L282.9,417.0L284.4,418.9L285.8,421.0L287.2,423.0L287.0,420.9L286.6,418.5L286.1,416.1L285.8,413.7L285.6,411.2L285.8,408.7L285.6,406.2L286.0,403.7L286.5,401.3L288.1,400.7L287.3,398.5L286.8,396.1L286.8,393.6L286.8,391.1L288.1,389.4L289.5,391.0L289.6,393.5L289.7,396.0L289.8,398.5L289.8,401.0L289.0,403.3L288.6,405.7L289.7,407.9L291.1,410.0L292.4,411.6L291.2,409.4L290.5,407.1L290.8,404.6L291.5,404.3L292.7,406.1L294.5,407.7L295.0,410.1L295.2,408.9L296.9,407.3L299.2,406.3L296.8,405.8L295.9,403.7L296.3,401.3L297.6,399.3L299.5,397.8L300.3,395.5L299.8,393.1L299.2,390.7L298.6,388.2L298.3,385.8L297.9,383.5L296.7,382.4L297.8,380.1L299.5,378.4L301.5,377.2L301.5,379.7L303.1,380.5L305.5,380.0L307.6,380.9L309.3,382.6L311.4,381.6L313.7,382.3L315.1,384.4L317.0,385.9L318.7,387.6L321.1,388.3L323.5,388.9L323.2,388.1L321.4,386.4L320.3,384.2L319.8,381.8L319.5,379.3L320.0,376.9L321.5,375.0L323.2,373.2L325.1,371.5L327.2,370.1L329.1,371.1L331.3,371.8L331.9,369.5L331.9,367.0L330.7,365.0L331.2,362.6L332.8,361.3L332.2,358.9L332.4,356.5L333.9,354.5L335.9,353.2L337.3,352.7L335.1,352.6L333.1,354.2L332.0,352.9L333.3,350.8L331.2,351.3L328.8,351.4L326.8,350.1L324.4,349.5L322.3,348.2L320.3,346.7L318.7,344.8L317.5,342.6L316.7,340.3L315.2,338.3L314.1,336.1L315.7,335.8L317.4,337.6L319.6,338.8L321.7,339.2L322.3,336.9L323.6,334.8L323.8,332.4L325.2,330.9L324.6,328.5L324.2,326.1L322.9,323.9L321.3,322.1L319.3,320.6L317.4,318.9L315.5,317.2L313.4,315.9L311.7,314.1L311.6,312.2L312.9,310.3L314.5,308.6L316.9,307.9L318.9,309.0L320.6,310.8L322.8,311.8L325.1,311.3L327.5,311.1L327.6,310.1L328.0,308.8L330.3,309.7L332.5,310.0L334.8,309.0L336.9,307.7L339.4,307.6L341.7,308.2L343.2,310.2L344.7,312.2L346.9,313.5L348.6,315.1L350.0,317.2L351.2,318.4L350.3,316.1L349.2,313.8L348.0,311.7L346.9,309.4L346.1,307.0L345.1,304.8L343.0,303.6L340.5,303.2L338.0,303.1L335.6,302.6L333.2,301.8L330.9,300.9L329.6,299.1L329.2,296.6L327.3,295.1L326.2,293.3L326.4,290.8L325.7,288.4L324.5,286.3L323.3,284.1L322.0,282.2L321.0,279.9L319.8,277.7L318.4,275.6L316.5,274.1L314.6,272.6L314.4,270.2L316.3,270.9L318.6,271.5L320.8,270.5L322.6,271.8L323.3,274.2L324.9,276.1L326.6,277.9L328.7,279.3L330.8,280.5L333.1,281.4L335.2,281.7L337.5,281.1L339.9,280.3L342.2,280.6L343.2,282.8L343.4,285.3L343.3,287.8L343.9,290.2L346.0,291.6L348.1,293.0L350.3,294.1L352.8,294.3L355.2,293.7L357.6,293.2L359.4,294.4L361.9,294.7L364.3,295.2L363.4,297.1L364.9,297.9L367.2,298.8L369.6,299.7L371.4,301.3L371.6,303.1L372.1,303.6L374.6,303.7L377.1,303.7L379.5,303.3L381.8,304.1L384.0,305.3L386.3,306.2L388.7,306.9L391.2,307.2L393.7,307.4L395.9,308.4L397.7,310.2L399.6,311.7L401.2,313.6L403.6,314.3L404.1,316.5L405.4,318.5L407.1,320.3L408.2,322.4L407.6,324.8L406.1,326.0L403.7,325.1L401.4,324.1L399.0,323.6L396.6,323.5L394.6,324.9L393.1,324.4L394.9,326.0L397.2,327.1L398.5,329.0L397.6,331.0L395.8,331.6L397.4,333.5L399.7,334.0L401.5,335.6L401.0,337.7L401.6,338.8L403.1,340.8L404.1,343.0L404.1,345.5L403.9,348.0L403.9,350.5L403.5,352.9L402.6,355.2L401.2,357.3L399.0,358.5L396.7,359.4L394.3,360.0L391.8,359.8L389.4,359.2L386.9,358.9L384.6,358.0L383.6,355.8L382.5,353.6L380.2,353.7L377.9,354.5L378.8,356.9L380.0,359.1L380.2,361.5L378.9,363.6L377.3,365.5L375.4,367.1L373.2,368.3L370.9,369.3L368.6,370.4L366.3,370.1L363.8,369.9L364.9,370.3L367.2,371.2L369.4,371.1L371.8,370.4L374.1,370.4L372.4,372.3L370.6,374.0L368.9,375.8L367.4,377.8L367.6,380.2L366.6,381.5L364.4,382.7L362.3,384.1L360.3,385.6L358.2,387.0L355.9,387.8L353.4,388.3L351.0,388.7L348.9,390.1L347.4,392.1L346.1,394.2L344.8,396.3L343.6,398.5L342.3,400.7L341.2,402.9L340.0,405.1L338.7,407.2L336.7,408.6L334.6,410.0L332.6,411.5Z" fill="#ef4444" fill-opacity="0.30" stroke="#991b1b" stroke-width="1.8"/>
<text x="330.0" y="276" font-size="13" text-anchor="middle" fill="#991b1b" font-weight="bold">7. United Kingdom</text>
<text x="330.0" y="472" font-size="12" text-anchor="middle" fill="#555">d=0.264</text>
<path d="M495.1,472.7L495.4,473.4L496.4,472.2L497.3,470.9L498.1,469.6L498.8,468.2L499.6,466.9L500.3,465.5L501.2,464.2L502.3,463.2L503.4,462.1L504.5,460.9L505.5,459.7L506.4,458.5L507.6,457.4L508.5,456.1L509.6,455.0L510.7,453.9L511.8,452.8L512.9,451.7L514.0,450.6L515.1,449.4L516.1,448.3L517.2,447.2L518.3,446.1L519.4,444.9L520.5,443.8L521.6,442.7L522.8,441.7L523.9,440.6L525.2,439.7L526.4,438.7L527.6,437.8L528.8,436.7L529.9,435.6L531.0,434.6L532.3,433.6L533.5,432.7L534.8,431.8L536.1,430.9L537.4,430.0L538.6,429.1L540.0,428.3L541.3,427.5L542.7,426.8L544.1,426.0L545.5,425.3L546.8,424.5L548.2,423.8L549.6,423.0L550.9,422.3L552.2,421.4L553.5,420.4L554.6,419.4L555.8,418.3L556.9,417.2L558.0,416.1L559.1,415.0L560.2,414.0L561.4,412.9L562.5,411.8L563.6,410.7L564.7,409.6L565.8,408.5L566.8,407.3L567.9,406.2L569.0,405.0L570.0,403.9L571.1,402.7L572.2,401.6L573.2,400.4L574.2,399.2L575.3,398.1L576.3,396.9L577.3,395.7L578.4,394.5L579.3,393.3L580.1,391.9L580.8,390.6L581.6,389.2L582.4,387.9L583.3,386.6L584.3,385.4L585.2,384.1L586.2,382.9L587.1,381.6L588.0,380.4L588.8,379.0L589.6,377.7L590.3,376.3L591.1,375.0L591.9,373.6L592.7,372.3L593.0,370.7L593.3,369.2L593.8,367.7L594.4,366.3L594.9,364.8L595.6,363.4L596.3,362.0L597.2,360.7L598.1,359.4L599.0,358.1L599.8,356.8L600.6,355.5L601.3,354.1L601.9,352.6L602.3,351.1L602.8,349.6L603.5,348.3L604.7,347.3L605.8,346.2L606.7,344.9L607.5,343.6L608.2,342.2L608.8,340.8L609.4,339.3L610.1,337.9L610.9,336.6L611.9,335.4L612.8,334.1L613.4,332.7L614.2,331.3L615.1,330.1L615.3,328.6L615.4,327.0L615.5,325.5L615.7,323.9L615.9,322.4L616.0,320.8L616.1,319.3L616.7,317.9L618.1,317.3L619.7,316.8L621.1,317.1L622.4,316.9L621.4,315.9L620.0,315.2L619.4,316.2L618.0,316.6L618.6,315.7L619.1,314.2L619.1,312.6L619.0,311.1L618.9,309.5L618.7,308.0L618.5,306.4L618.3,304.9L618.8,303.4L619.4,301.9L620.0,300.5L620.3,299.0L619.2,298.4L617.7,297.8L616.2,297.3L614.8,296.8L613.3,297.0L612.0,297.8L611.0,299.0L610.1,300.2L608.7,301.0L607.4,301.8L606.0,302.6L604.5,302.9L603.0,303.2L601.4,303.5L599.9,303.7L598.4,304.4L597.0,305.0L595.5,305.4L594.0,305.8L592.5,306.1L590.9,306.3L589.4,306.0L587.9,305.6L586.4,305.5L584.8,305.8L583.4,306.3L581.9,306.9L580.4,307.4L579.0,307.9L577.4,308.1L575.8,308.2L574.3,308.0L572.8,307.6L571.3,307.5L569.8,308.1L568.5,308.9L567.2,309.7L565.9,310.6L564.5,311.3L563.0,311.9L561.6,312.6L560.2,313.1L558.6,313.1L557.1,312.7L555.6,312.5L554.0,312.5L552.5,312.2L550.9,311.9L549.4,312.3L548.0,312.9L546.5,313.5L545.1,314.2L543.7,314.9L542.4,315.6L541.0,316.4L539.6,317.0L538.0,317.1L536.5,317.1L534.9,317.1L533.3,317.1L531.8,316.8L530.5,316.1L529.2,315.1L528.0,314.2L526.7,313.2L525.5,312.2L524.5,311.0L523.5,309.8L522.6,308.6L521.8,307.2L521.0,305.9L520.0,304.7L518.8,303.8L517.7,303.8L516.9,305.1L516.0,306.4L515.2,307.7L514.3,309.0L513.5,310.4L512.5,311.6L511.6,312.8L510.7,314.1L510.8,315.5L511.6,316.9L512.2,318.3L512.7,319.8L513.8,320.9L514.8,322.1L515.6,323.4L517.0,324.1L517.6,325.5L518.3,326.9L519.1,328.3L520.0,329.5L521.0,330.7L522.5,331.2L523.7,332.1L524.8,333.2L526.0,334.2L527.1,335.3L528.5,336.0L530.0,336.5L531.5,337.0L533.0,337.5L534.4,338.0L535.9,338.5L537.4,339.0L538.9,339.4L540.4,339.9L541.9,340.4L543.3,340.9L544.8,341.4L546.3,341.9L547.8,342.4L549.3,342.9L550.7,343.4L552.2,343.9L553.7,344.4L555.2,344.9L556.7,345.4L558.2,345.9L559.6,346.4L561.1,346.9L562.6,347.4L564.1,347.9L565.5,348.4L567.1,348.6L568.6,348.6L570.2,348.6L571.8,348.6L573.3,348.6L574.9,348.6L576.4,348.6L578.0,348.6L578.3,349.1L577.2,350.2L576.1,351.2L575.0,352.3L573.8,353.4L572.7,354.5L571.6,355.6L570.5,356.7L569.3,357.8L568.2,358.9L567.1,360.0L566.0,361.1L564.9,362.1L563.7,363.2L562.6,364.3L561.5,365.4L560.4,366.5L559.2,367.6L558.1,368.7L557.1,369.8L556.0,370.9L554.9,372.0L553.8,373.2L552.7,374.3L551.6,375.4L550.6,376.6L549.5,377.7L548.5,378.9L547.4,380.0L546.3,381.2L545.3,382.3L544.2,383.5L543.2,384.6L542.1,385.8L541.1,386.9L540.0,388.1L538.7,388.6L537.1,388.6L535.5,388.5L534.0,388.4L532.4,388.3L530.9,388.2L529.3,388.1L527.7,388.0L526.2,388.2L524.7,388.6L523.2,388.9L521.6,389.3L520.2,389.9L518.8,390.5L517.4,391.2L516.0,391.9L514.7,392.9L513.8,394.1L513.0,395.5L511.8,396.4L510.3,396.7L508.8,397.0L507.2,397.2L505.7,397.5L504.1,397.6L502.6,398.1L501.3,398.8L500.2,399.9L499.3,401.2L498.4,402.5L497.5,403.7L496.6,405.0L495.7,406.3L494.8,407.6L493.9,408.8L493.0,410.1L491.9,411.3L490.8,412.3L489.7,413.4L488.6,414.5L487.8,415.8L487.8,417.4L487.8,418.9L487.8,420.5L487.8,422.1L487.8,423.6L487.8,425.2L487.8,426.7L487.8,428.3L487.8,429.9L487.8,431.4L487.8,433.0L487.8,434.6L487.8,436.1L487.8,437.7L487.8,439.2L487.8,440.8L487.8,442.4L487.8,443.9L487.8,445.5L487.8,447.1L487.8,448.6L487.8,450.2L487.8,451.7L487.8,453.3L487.8,454.9L487.8,456.4L487.8,458.0L487.8,459.6L487.8,461.1L487.8,462.7L488.6,464.0L489.5,465.2L490.5,466.5L491.4,467.7L492.4,468.9L493.3,470.2L494.3,471.4Z" fill="#9ca3af" fill-opacity="0.45" stroke="#374151" stroke-width="1.5"/>
<path d="M476.9,422.5L475.3,420.3L474.1,418.7L473.3,417.8L470.8,417.6L472.1,417.0L474.9,415.7L473.4,415.4L473.2,415.0L471.6,416.8L469.3,415.6L470.9,413.6L469.3,415.1L467.2,413.5L468.2,411.4L467.6,409.8L466.7,409.8L467.4,408.0L469.5,407.0L466.9,406.0L465.9,403.4L467.5,402.8L465.8,401.7L465.1,401.4L466.0,400.3L465.2,399.5L464.5,398.2L465.7,395.4L467.1,392.6L468.5,389.8L470.0,387.0L471.5,384.3L473.0,381.6L474.6,378.9L476.3,376.2L477.9,373.6L479.7,371.0L481.4,368.4L483.2,365.8L485.1,363.3L486.9,360.8L488.9,358.3L490.8,355.9L492.8,353.5L494.8,351.1L496.9,348.7L499.0,346.4L501.1,344.1L503.3,341.9L505.5,339.7L507.7,337.5L510.0,335.3L512.3,333.4L513.4,333.2L513.3,330.5L515.2,328.5L516.3,325.8L517.6,323.4L519.7,321.8L521.7,319.7L524.5,318.6L526.5,316.6L527.7,313.7L529.0,310.9L530.3,308.0L530.4,305.1L531.0,303.2L531.5,301.1L532.6,298.3L532.1,295.5L530.8,292.6L529.3,289.9L526.9,287.9L524.0,287.2L523.5,284.5L526.3,283.7L529.4,283.6L532.3,282.6L535.5,282.3L537.4,283.6L539.5,284.9L542.2,283.4L545.0,282.1L547.8,283.4L550.8,284.2L553.8,284.4L556.7,285.0L557.7,285.8L560.5,286.6L563.5,287.2L566.5,287.3L569.4,288.1L572.1,289.6L573.0,291.9L570.9,293.7L573.4,291.8L575.9,292.4L578.7,293.7L581.5,294.0L583.8,295.5L586.5,296.5L589.4,296.1L592.3,295.1L595.2,294.3L598.1,293.4L600.8,292.6L603.8,292.2L606.4,293.8L608.8,295.8L611.8,296.2L614.7,296.7L617.3,298.3L617.5,300.0L617.5,300.8L618.0,303.8L616.3,306.0L614.0,305.6L614.7,307.9L612.4,308.2L611.1,307.7L608.4,306.3L606.6,306.0L607.5,307.4L610.5,308.0L613.1,309.2L614.4,310.4L612.3,311.4L610.7,313.1L610.0,312.9L608.8,314.1L608.6,314.8L608.4,316.7L606.5,318.1L606.9,319.6L605.8,321.0L605.7,321.5L607.8,322.3L606.9,324.6L607.2,325.6L606.4,328.1L605.6,328.4L605.4,329.7L605.9,330.3L605.8,332.5L605.5,333.0L605.2,334.8L604.9,337.0L604.6,338.4L602.6,337.0L602.0,335.5L601.1,334.8L600.1,333.6L599.0,331.4L597.9,332.4L595.0,331.3L594.8,332.1L594.3,332.9L591.9,331.4L593.7,332.4L593.8,335.2L590.9,335.3L591.9,335.8L592.3,338.1L592.6,340.7L592.8,340.9L594.2,343.2L594.7,344.6L592.7,346.0L591.4,348.2L591.0,349.4L590.6,351.2L589.6,353.8L587.1,353.4L585.2,354.8L583.5,357.1L580.8,357.1L580.4,354.1L578.7,352.0L578.4,350.5L577.8,348.0L576.8,346.0L575.5,345.1L572.9,343.6L573.6,340.7L574.2,337.7L573.5,334.7L572.1,331.9L569.6,330.0L566.7,328.9L563.6,328.8L561.6,328.0L561.6,325.4L560.4,323.0L559.5,320.2L558.6,317.6L556.9,315.6L556.0,315.7L554.0,315.7L553.7,313.8L552.7,316.7L552.1,317.0L552.6,319.8L551.1,322.3L552.0,324.6L553.1,327.2L554.4,329.9L556.0,332.4L555.7,335.1L553.4,337.0L550.7,338.2L550.9,340.0L549.3,342.7L548.1,345.4L547.7,348.5L546.2,351.2L544.8,353.9L541.8,355.0L540.9,355.8L542.8,358.1L544.0,360.9L543.8,363.5L541.7,362.9L542.7,365.5L544.4,367.5L546.6,369.7L548.9,371.2L551.3,372.6L553.4,373.9L555.3,374.4L555.9,374.2L557.7,374.4L559.4,374.0L561.8,375.1L560.7,377.7L560.1,379.1L559.0,380.8L560.2,379.5L561.7,377.2L563.8,375.6L565.2,377.0L566.3,375.8L568.8,375.2L571.6,376.6L571.2,378.8L569.8,381.4L568.7,384.2L569.0,384.1L570.6,382.3L571.3,379.3L574.0,378.8L576.4,380.2L577.1,381.5L578.5,379.1L580.1,378.9L579.9,381.7L580.5,380.5L581.3,378.3L584.2,379.1L586.5,380.7L586.7,383.7L587.4,385.4L589.2,386.3L589.7,387.9L589.5,389.8L587.8,391.9L585.7,392.7L585.1,389.9L583.3,389.2L581.1,387.0L578.6,385.3L577.2,386.5L578.0,389.4L579.6,390.5L580.0,393.4L578.2,393.6L575.9,392.0L577.2,394.6L578.1,396.3L578.3,397.6L576.6,399.3L578.2,400.4L579.6,400.7L579.7,403.2L581.0,405.9L580.9,408.5L578.6,408.8L577.3,408.4L575.4,406.2L574.1,405.4L573.5,402.6L574.2,400.1L574.3,399.1L573.0,398.8L573.1,398.0L572.0,396.4L569.1,396.4L567.1,394.9L565.0,393.2L564.2,393.2L565.2,393.4L565.5,394.9L567.3,397.0L567.0,398.1L567.5,399.8L566.0,400.9L564.9,399.5L565.0,397.6L564.8,400.5L563.0,400.3L560.9,402.5L559.2,404.8L558.3,407.3L558.5,410.0L558.9,412.4L556.2,414.0L554.8,412.6L556.9,411.3L557.8,410.6L555.2,411.3L553.0,410.7L551.3,408.2L549.9,408.0L549.8,408.4L551.1,409.7L551.8,411.8L551.8,413.9L550.4,415.8L548.4,418.0L547.2,420.8L548.4,422.1L550.4,421.9L550.9,425.0L549.6,426.5L549.5,429.6L549.3,432.6L549.6,435.6L547.3,436.8L547.5,438.2L549.0,439.8L546.7,439.7L546.1,441.3L548.4,443.4L548.5,444.8L546.2,444.9L545.9,445.7L543.4,447.5L542.7,448.3L541.1,450.0L539.4,450.6L541.6,450.3L543.8,448.5L546.3,446.6L545.9,448.5L543.9,450.3L542.0,451.6L542.5,452.8L541.3,454.3L539.4,454.7L538.4,454.4L538.9,457.5L540.4,460.1L540.8,463.1L537.9,462.9L534.8,462.5L531.7,462.2L528.6,461.8L525.5,461.4L522.4,461.0L519.3,460.6L516.2,460.2L513.1,459.7L510.0,459.3L506.9,458.9L503.8,458.4L500.7,457.9L499.0,456.5L499.7,454.0L497.9,452.3L495.9,450.0L494.7,448.3L497.0,447.0L498.9,445.2L496.9,443.1L495.2,440.6L493.1,438.4L490.8,436.3L489.0,434.3L487.4,432.6L486.7,429.6L484.9,428.0L482.1,426.9L484.0,426.5L481.3,426.8L478.5,426.3L478.1,425.5L475.8,424.6L475.8,422.5L478.4,421.7L476.9,420.3L476.7,420.3Z" fill="#ef4444" fill-opacity="0.30" stroke="#991b1b" stroke-width="1.8"/>
<text x="550.0" y="276" font-size="13" text-anchor="middle" fill="#991b1b" font-weight="bold">8. Canada</text>
<text x="550.0" y="472" font-size="12" text-anchor="middle" fill="#555">d=0.278</text>
<path d="M715.1,472.7L715.4,473.4L716.4,472.2L717.3,470.9L718.1,469.6L718.8,468.2L719.6,466.9L720.3,465.5L721.2,464.2L722.3,463.2L723.4,462.1L724.5,460.9L725.5,459.7L726.4,458.5L727.6,457.4L728.5,456.1L729.6,455.0L730.7,453.9L731.8,452.8L732.9,451.7L734.0,450.6L735.1,449.4L736.1,448.3L737.2,447.2L738.3,446.1L739.4,444.9L740.5,443.8L741.6,442.7L742.8,441.7L743.9,440.6L745.2,439.7L746.4,438.7L747.6,437.8L748.8,436.7L749.9,435.6L751.0,434.6L752.3,433.6L753.5,432.7L754.8,431.8L756.1,430.9L757.4,430.0L758.6,429.1L760.0,428.3L761.3,427.5L762.7,426.8L764.1,426.0L765.5,425.3L766.8,424.5L768.2,423.8L769.6,423.0L770.9,422.3L772.2,421.4L773.5,420.4L774.6,419.4L775.8,418.3L776.9,417.2L778.0,416.1L779.1,415.0L780.2,414.0L781.4,412.9L782.5,411.8L783.6,410.7L784.7,409.6L785.8,408.5L786.8,407.3L787.9,406.2L789.0,405.0L790.0,403.9L791.1,402.7L792.2,401.6L793.2,400.4L794.2,399.2L795.3,398.1L796.3,396.9L797.3,395.7L798.4,394.5L799.3,393.3L800.1,391.9L800.8,390.6L801.6,389.2L802.4,387.9L803.3,386.6L804.3,385.4L805.2,384.1L806.2,382.9L807.1,381.6L808.0,380.4L808.8,379.0L809.6,377.7L810.3,376.3L811.1,375.0L811.9,373.6L812.7,372.3L813.0,370.7L813.3,369.2L813.8,367.7L814.4,366.3L814.9,364.8L815.6,363.4L816.3,362.0L817.2,360.7L818.1,359.4L819.0,358.1L819.8,356.8L820.6,355.5L821.3,354.1L821.9,352.6L822.3,351.1L822.8,349.6L823.5,348.3L824.7,347.3L825.8,346.2L826.7,344.9L827.5,343.6L828.2,342.2L828.8,340.8L829.4,339.3L830.1,337.9L830.9,336.6L831.9,335.4L832.8,334.1L833.4,332.7L834.2,331.3L835.1,330.1L835.3,328.6L835.4,327.0L835.5,325.5L835.7,323.9L835.9,322.4L836.0,320.8L836.1,319.3L836.7,317.9L838.1,317.3L839.7,316.8L841.1,317.1L842.4,316.9L841.4,315.9L840.0,315.2L839.4,316.2L838.0,316.6L838.6,315.7L839.1,314.2L839.1,312.6L839.0,311.1L838.9,309.5L838.7,308.0L838.5,306.4L838.3,304.9L838.8,303.4L839.4,301.9L840.0,300.5L840.3,299.0L839.2,298.4L837.7,297.8L836.2,297.3L834.8,296.8L833.3,297.0L832.0,297.8L831.0,299.0L830.1,300.2L828.7,301.0L827.4,301.8L826.0,302.6L824.5,302.9L823.0,303.2L821.4,303.5L819.9,303.7L818.4,304.4L817.0,305.0L815.5,305.4L814.0,305.8L812.5,306.1L810.9,306.3L809.4,306.0L807.9,305.6L806.4,305.5L804.8,305.8L803.4,306.3L801.9,306.9L800.4,307.4L799.0,307.9L797.4,308.1L795.8,308.2L794.3,308.0L792.8,307.6L791.3,307.5L789.8,308.1L788.5,308.9L787.2,309.7L785.9,310.6L784.5,311.3L783.0,311.9L781.6,312.6L780.2,313.1L778.6,313.1L777.1,312.7L775.6,312.5L774.0,312.5L772.5,312.2L770.9,311.9L769.4,312.3L768.0,312.9L766.5,313.5L765.1,314.2L763.7,314.9L762.4,315.6L761.0,316.4L759.6,317.0L758.0,317.1L756.5,317.1L754.9,317.1L753.3,317.1L751.8,316.8L750.5,316.1L749.2,315.1L748.0,314.2L746.7,313.2L745.5,312.2L744.5,311.0L743.5,309.8L742.6,308.6L741.8,307.2L741.0,305.9L740.0,304.7L738.8,303.8L737.7,303.8L736.9,305.1L736.0,306.4L735.2,307.7L734.3,309.0L733.5,310.4L732.5,311.6L731.6,312.8L730.7,314.1L730.8,315.5L731.6,316.9L732.2,318.3L732.7,319.8L733.8,320.9L734.8,322.1L735.6,323.4L737.0,324.1L737.6,325.5L738.3,326.9L739.1,328.3L740.0,329.5L741.0,330.7L742.5,331.2L743.7,332.1L744.8,333.2L746.0,334.2L747.1,335.3L748.5,336.0L750.0,336.5L751.5,337.0L753.0,337.5L754.4,338.0L755.9,338.5L757.4,339.0L758.9,339.4L760.4,339.9L761.9,340.4L763.3,340.9L764.8,341.4L766.3,341.9L767.8,342.4L769.3,342.9L770.7,343.4L772.2,343.9L773.7,344.4L775.2,344.9L776.7,345.4L778.2,345.9L779.6,346.4L781.1,346.9L782.6,347.4L784.1,347.9L785.5,348.4L787.1,348.6L788.6,348.6L790.2,348.6L791.8,348.6L793.3,348.6L794.9,348.6L796.4,348.6L798.0,348.6L798.3,349.1L797.2,350.2L796.1,351.2L795.0,352.3L793.8,353.4L792.7,354.5L791.6,355.6L790.5,356.7L789.3,357.8L788.2,358.9L787.1,360.0L786.0,361.1L784.9,362.1L783.7,363.2L782.6,364.3L781.5,365.4L780.4,366.5L779.2,367.6L778.1,368.7L777.1,369.8L776.0,370.9L774.9,372.0L773.8,373.2L772.7,374.3L771.6,375.4L770.6,376.6L769.5,377.7L768.5,378.9L767.4,380.0L766.3,381.2L765.3,382.3L764.2,383.5L763.2,384.6L762.1,385.8L761.1,386.9L760.0,388.1L758.7,388.6L757.1,388.6L755.5,388.5L754.0,388.4L752.4,388.3L750.9,388.2L749.3,388.1L747.7,388.0L746.2,388.2L744.7,388.6L743.2,388.9L741.6,389.3L740.2,389.9L738.8,390.5L737.4,391.2L736.0,391.9L734.7,392.9L733.8,394.1L733.0,395.5L731.8,396.4L730.3,396.7L728.8,397.0L727.2,397.2L725.7,397.5L724.1,397.6L722.6,398.1L721.3,398.8L720.2,399.9L719.3,401.2L718.4,402.5L717.5,403.7L716.6,405.0L715.7,406.3L714.8,407.6L713.9,408.8L713.0,410.1L711.9,411.3L710.8,412.3L709.7,413.4L708.6,414.5L707.8,415.8L707.8,417.4L707.8,418.9L707.8,420.5L707.8,422.1L707.8,423.6L707.8,425.2L707.8,426.7L707.8,428.3L707.8,429.9L707.8,431.4L707.8,433.0L707.8,434.6L707.8,436.1L707.8,437.7L707.8,439.2L707.8,440.8L707.8,442.4L707.8,443.9L707.8,445.5L707.8,447.1L707.8,448.6L707.8,450.2L707.8,451.7L707.8,453.3L707.8,454.9L707.8,456.4L707.8,458.0L707.8,459.6L707.8,461.1L707.8,462.7L708.6,464.0L709.5,465.2L710.5,466.5L711.4,467.7L712.4,468.9L713.3,470.2L714.3,471.4Z" fill="#9ca3af" fill-opacity="0.45" stroke="#374151" stroke-width="1.5"/>
<path d="M811.8,322.1L810.2,321.7L808.7,322.3L809.1,325.1L809.1,328.1L808.7,330.8L808.3,333.8L808.0,336.3L809.4,338.2L811.4,339.2L811.8,340.9L813.2,341.6L813.4,343.6L812.0,346.1L812.3,346.9L814.5,349.1L817.2,350.7L819.9,352.2L821.1,353.9L821.1,355.4L821.4,357.9L821.7,360.4L823.6,362.4L824.2,364.8L825.0,366.6L824.0,368.8L822.7,370.8L820.8,372.8L818.9,375.0L819.1,377.6L820.1,379.9L819.8,382.6L819.0,385.1L816.7,384.9L813.9,384.8L812.8,386.8L812.9,389.9L814.1,392.1L815.0,394.7L813.4,397.2L812.3,400.0L812.7,402.8L812.8,405.5L811.9,408.3L809.7,410.4L807.2,411.8L805.9,414.2L804.9,416.8L803.6,419.3L800.9,419.9L798.2,419.2L795.2,419.1L794.1,417.3L791.3,418.5L789.1,420.6L788.3,423.3L788.6,425.9L790.1,428.5L791.7,431.1L792.8,433.5L791.3,435.8L791.1,438.6L792.7,441.0L790.6,443.1L787.8,443.7L787.4,445.7L790.0,446.7L792.6,448.1L795.3,449.0L797.1,446.9L799.4,447.8L801.6,449.9L803.9,450.1L803.0,451.0L800.7,451.1L800.4,452.4L798.5,454.4L795.4,454.9L792.4,454.3L789.4,453.8L786.3,453.4L783.4,452.3L780.5,451.3L777.6,450.4L775.3,448.4L773.4,446.2L770.8,444.6L769.0,442.6L768.0,441.3L768.2,438.3L770.0,437.0L770.7,437.5L772.9,436.7L771.3,435.6L773.1,435.6L772.1,433.5L772.2,431.6L769.1,431.6L766.2,431.0L763.1,430.5L760.3,429.6L757.3,428.9L754.4,429.4L752.3,431.4L749.9,432.4L748.3,432.5L746.2,433.2L744.7,434.8L745.9,435.7L743.3,436.3L741.0,437.0L741.1,435.5L738.6,433.7L736.1,432.1L733.3,431.6L730.9,432.2L732.2,434.5L731.1,435.1L728.4,433.5L727.2,432.5L724.9,431.3L725.5,432.1L726.6,434.7L728.8,436.3L731.4,437.8L734.0,439.4L736.5,441.2L739.2,441.9L741.0,443.5L743.3,445.5L744.8,448.3L745.6,451.3L746.6,454.3L747.3,457.2L747.0,459.1L744.3,457.8L742.7,455.3L740.3,455.2L739.2,453.2L736.5,452.5L735.1,450.7L733.3,448.4L732.8,448.7L732.0,447.2L730.7,444.7L732.2,443.4L730.2,441.1L728.6,438.8L726.7,439.2L724.2,437.8L723.9,438.9L721.0,438.1L719.2,440.0L717.1,438.1L714.9,436.4L712.7,435.1L710.1,433.7L708.8,432.8L706.3,433.1L706.6,430.6L706.9,428.9L708.3,427.3L709.6,426.7L711.1,426.7L708.6,426.3L708.1,426.7L705.5,425.9L705.3,422.9L705.3,419.8L705.4,416.6L706.0,413.7L708.6,412.4L711.5,411.8L714.2,411.1L714.3,413.5L715.9,414.1L717.4,412.0L720.3,411.8L723.1,411.6L724.5,413.9L723.7,411.2L723.9,408.6L725.5,406.1L728.5,405.5L730.2,404.1L730.9,402.6L730.7,401.2L732.9,399.5L734.4,399.6L733.2,399.6L734.6,398.3L733.6,397.8L735.9,395.7L737.8,395.6L738.6,396.8L739.9,397.2L741.1,397.1L743.1,395.4L744.0,393.4L746.6,394.7L746.3,392.1L745.9,390.8L745.4,390.5L744.0,389.5L743.3,387.4L744.4,385.8L745.9,384.7L747.5,384.5L748.6,381.7L748.4,379.8L750.3,378.3L752.0,378.7L749.6,377.3L749.7,375.8L750.7,375.5L752.8,374.4L755.0,372.8L752.1,373.4L749.4,374.3L746.5,375.3L744.9,374.0L743.7,373.9L743.4,372.5L744.4,370.1L743.6,369.1L743.5,367.8L743.2,366.0L746.2,365.9L747.1,364.7L747.8,365.3L748.7,363.4L749.0,361.6L749.7,361.4L751.2,358.8L753.0,357.6L754.4,357.4L755.8,357.7L757.9,357.4L756.1,357.7L756.8,355.0L757.8,352.5L760.6,353.2L762.5,355.3L765.5,355.6L765.8,354.9L766.1,354.2L763.2,354.7L761.8,353.0L760.6,350.5L761.8,349.8L763.2,349.5L764.7,350.8L763.6,348.2L760.8,348.3L760.0,347.9L762.3,346.2L765.1,346.8L768.0,345.9L769.4,347.4L770.8,349.8L773.6,349.6L773.8,349.4L770.9,349.0L770.7,346.5L773.7,346.3L776.1,344.5L777.0,342.2L775.4,340.0L776.5,341.7L774.8,343.5L772.1,344.9L769.5,344.6L766.4,345.0L763.4,345.2L760.7,345.8L758.6,344.6L759.5,342.7L762.2,341.1L764.0,340.3L766.7,339.3L768.7,340.3L771.0,340.2L768.8,338.3L766.6,336.5L765.1,333.8L767.4,333.1L768.4,331.0L766.8,330.4L766.7,327.6L766.7,325.2L765.2,326.7L765.4,324.8L765.3,322.9L765.8,320.3L767.2,318.1L765.4,316.4L764.4,318.2L761.8,318.2L761.8,316.9L764.2,315.1L766.7,314.0L765.9,313.1L765.6,310.5L766.9,308.2L767.6,306.6L764.8,305.6L766.7,304.3L767.9,303.3L765.1,302.4L762.4,303.5L760.0,304.8L757.6,304.9L757.9,305.3L760.4,306.3L763.1,307.7L764.2,310.5L762.6,312.7L759.7,313.0L757.4,312.3L754.4,311.6L753.2,310.0L751.6,310.3L750.9,309.8L750.4,308.0L750.9,305.7L753.5,304.6L755.0,302.2L757.8,300.9L759.2,298.8L761.8,297.8L763.9,296.6L765.9,294.7L766.4,291.6L766.6,288.5L768.3,288.8L769.8,288.9L768.5,287.0L769.8,284.5L772.1,282.8L774.0,281.1L776.5,280.0L778.7,280.7L780.9,281.6L783.2,280.2L785.9,280.1L787.4,278.9L787.7,277.4L789.6,277.7L791.5,279.7L793.8,278.7L796.1,279.4L798.5,279.7L800.3,281.5L802.6,282.8L804.9,284.0L806.2,282.5L808.4,281.2L807.6,278.5L808.9,278.5L809.6,278.3L809.8,276.4L810.9,276.0L811.8,273.6L811.9,272.8L814.6,273.9L817.4,275.1L819.7,276.3L822.1,278.2L824.0,280.4L826.3,281.9L827.6,284.0L830.0,284.9L832.5,286.4L833.3,288.6L830.7,288.9L827.8,288.9L826.7,289.3L823.8,288.9L822.3,291.2L822.1,293.4L821.2,294.9L819.7,295.1L816.8,294.4L814.5,293.4L812.2,294.6L809.9,296.2L811.7,297.5L810.1,299.0L809.4,301.9L809.8,304.1L810.8,306.5L813.2,308.2L813.4,309.1L814.8,311.2L815.4,313.8L816.7,315.9L817.0,318.0L816.9,320.5L814.7,319.1L813.2,320.5Z" fill="#ef4444" fill-opacity="0.30" stroke="#991b1b" stroke-width="1.8"/>
<text x="770.0" y="276" font-size="13" text-anchor="middle" fill="#991b1b" font-weight="bold">9. Russia</text>
<text x="770.0" y="472" font-size="12" text-anchor="middle" fill="#555">d=0.279</text>
<path d="M935.1,472.7L935.4,473.4L936.4,472.2L937.3,470.9L938.1,469.6L938.8,468.2L939.6,466.9L940.3,465.5L941.2,464.2L942.3,463.2L943.4,462.1L944.5,460.9L945.5,459.7L946.4,458.5L947.6,457.4L948.5,456.1L949.6,455.0L950.7,453.9L951.8,452.8L952.9,451.7L954.0,450.6L955.1,449.4L956.1,448.3L957.2,447.2L958.3,446.1L959.4,444.9L960.5,443.8L961.6,442.7L962.8,441.7L963.9,440.6L965.2,439.7L966.4,438.7L967.6,437.8L968.8,436.7L969.9,435.6L971.0,434.6L972.3,433.6L973.5,432.7L974.8,431.8L976.1,430.9L977.4,430.0L978.6,429.1L980.0,428.3L981.3,427.5L982.7,426.8L984.1,426.0L985.5,425.3L986.8,424.5L988.2,423.8L989.6,423.0L990.9,422.3L992.2,421.4L993.5,420.4L994.6,419.4L995.8,418.3L996.9,417.2L998.0,416.1L999.1,415.0L1000.2,414.0L1001.4,412.9L1002.5,411.8L1003.6,410.7L1004.7,409.6L1005.8,408.5L1006.8,407.3L1007.9,406.2L1009.0,405.0L1010.0,403.9L1011.1,402.7L1012.2,401.6L1013.2,400.4L1014.2,399.2L1015.3,398.1L1016.3,396.9L1017.3,395.7L1018.4,394.5L1019.3,393.3L1020.1,391.9L1020.8,390.6L1021.6,389.2L1022.4,387.9L1023.3,386.6L1024.3,385.4L1025.2,384.1L1026.2,382.9L1027.1,381.6L1028.0,380.4L1028.8,379.0L1029.6,377.7L1030.3,376.3L1031.1,375.0L1031.9,373.6L1032.7,372.3L1033.0,370.7L1033.3,369.2L1033.8,367.7L1034.4,366.3L1034.9,364.8L1035.6,363.4L1036.3,362.0L1037.2,360.7L1038.1,359.4L1039.0,358.1L1039.8,356.8L1040.6,355.5L1041.3,354.1L1041.9,352.6L1042.3,351.1L1042.8,349.6L1043.5,348.3L1044.7,347.3L1045.8,346.2L1046.7,344.9L1047.5,343.6L1048.2,342.2L1048.8,340.8L1049.4,339.3L1050.1,337.9L1050.9,336.6L1051.9,335.4L1052.8,334.1L1053.4,332.7L1054.2,331.3L1055.1,330.1L1055.3,328.6L1055.4,327.0L1055.5,325.5L1055.7,323.9L1055.9,322.4L1056.0,320.8L1056.1,319.3L1056.7,317.9L1058.1,317.3L1059.7,316.8L1061.1,317.1L1062.4,316.9L1061.4,315.9L1060.0,315.2L1059.4,316.2L1058.0,316.6L1058.6,315.7L1059.1,314.2L1059.1,312.6L1059.0,311.1L1058.9,309.5L1058.7,308.0L1058.5,306.4L1058.3,304.9L1058.8,303.4L1059.4,301.9L1060.0,300.5L1060.3,299.0L1059.2,298.4L1057.7,297.8L1056.2,297.3L1054.8,296.8L1053.3,297.0L1052.0,297.8L1051.0,299.0L1050.1,300.2L1048.7,301.0L1047.4,301.8L1046.0,302.6L1044.5,302.9L1043.0,303.2L1041.4,303.5L1039.9,303.7L1038.4,304.4L1037.0,305.0L1035.5,305.4L1034.0,305.8L1032.5,306.1L1030.9,306.3L1029.4,306.0L1027.9,305.6L1026.4,305.5L1024.8,305.8L1023.4,306.3L1021.9,306.9L1020.4,307.4L1019.0,307.9L1017.4,308.1L1015.8,308.2L1014.3,308.0L1012.8,307.6L1011.3,307.5L1009.8,308.1L1008.5,308.9L1007.2,309.7L1005.9,310.6L1004.5,311.3L1003.0,311.9L1001.6,312.6L1000.2,313.1L998.6,313.1L997.1,312.7L995.6,312.5L994.0,312.5L992.5,312.2L990.9,311.9L989.4,312.3L988.0,312.9L986.5,313.5L985.1,314.2L983.7,314.9L982.4,315.6L981.0,316.4L979.6,317.0L978.0,317.1L976.5,317.1L974.9,317.1L973.3,317.1L971.8,316.8L970.5,316.1L969.2,315.1L968.0,314.2L966.7,313.2L965.5,312.2L964.5,311.0L963.5,309.8L962.6,308.6L961.8,307.2L961.0,305.9L960.0,304.7L958.8,303.8L957.7,303.8L956.9,305.1L956.0,306.4L955.2,307.7L954.3,309.0L953.5,310.4L952.5,311.6L951.6,312.8L950.7,314.1L950.8,315.5L951.6,316.9L952.2,318.3L952.7,319.8L953.8,320.9L954.8,322.1L955.6,323.4L957.0,324.1L957.6,325.5L958.3,326.9L959.1,328.3L960.0,329.5L961.0,330.7L962.5,331.2L963.7,332.1L964.8,333.2L966.0,334.2L967.1,335.3L968.5,336.0L970.0,336.5L971.5,337.0L973.0,337.5L974.4,338.0L975.9,338.5L977.4,339.0L978.9,339.4L980.4,339.9L981.9,340.4L983.3,340.9L984.8,341.4L986.3,341.9L987.8,342.4L989.3,342.9L990.7,343.4L992.2,343.9L993.7,344.4L995.2,344.9L996.7,345.4L998.2,345.9L999.6,346.4L1001.1,346.9L1002.6,347.4L1004.1,347.9L1005.5,348.4L1007.1,348.6L1008.6,348.6L1010.2,348.6L1011.8,348.6L1013.3,348.6L1014.9,348.6L1016.4,348.6L1018.0,348.6L1018.3,349.1L1017.2,350.2L1016.1,351.2L1015.0,352.3L1013.8,353.4L1012.7,354.5L1011.6,355.6L1010.5,356.7L1009.3,357.8L1008.2,358.9L1007.1,360.0L1006.0,361.1L1004.9,362.1L1003.7,363.2L1002.6,364.3L1001.5,365.4L1000.4,366.5L999.2,367.6L998.1,368.7L997.1,369.8L996.0,370.9L994.9,372.0L993.8,373.2L992.7,374.3L991.6,375.4L990.6,376.6L989.5,377.7L988.5,378.9L987.4,380.0L986.3,381.2L985.3,382.3L984.2,383.5L983.2,384.6L982.1,385.8L981.1,386.9L980.0,388.1L978.7,388.6L977.1,388.6L975.5,388.5L974.0,388.4L972.4,388.3L970.9,388.2L969.3,388.1L967.7,388.0L966.2,388.2L964.7,388.6L963.2,388.9L961.6,389.3L960.2,389.9L958.8,390.5L957.4,391.2L956.0,391.9L954.7,392.9L953.8,394.1L953.0,395.5L951.8,396.4L950.3,396.7L948.8,397.0L947.2,397.2L945.7,397.5L944.1,397.6L942.6,398.1L941.3,398.8L940.2,399.9L939.3,401.2L938.4,402.5L937.5,403.7L936.6,405.0L935.7,406.3L934.8,407.6L933.9,408.8L933.0,410.1L931.9,411.3L930.8,412.3L929.7,413.4L928.6,414.5L927.8,415.8L927.8,417.4L927.8,418.9L927.8,420.5L927.8,422.1L927.8,423.6L927.8,425.2L927.8,426.7L927.8,428.3L927.8,429.9L927.8,431.4L927.8,433.0L927.8,434.6L927.8,436.1L927.8,437.7L927.8,439.2L927.8,440.8L927.8,442.4L927.8,443.9L927.8,445.5L927.8,447.1L927.8,448.6L927.8,450.2L927.8,451.7L927.8,453.3L927.8,454.9L927.8,456.4L927.8,458.0L927.8,459.6L927.8,461.1L927.8,462.7L928.6,464.0L929.5,465.2L930.5,466.5L931.4,467.7L932.4,468.9L933.3,470.2L934.3,471.4Z" fill="#9ca3af" fill-opacity="0.45" stroke="#374151" stroke-width="1.5"/>
<path d="M931.9,413.9L932.1,415.4L933.5,416.5L935.0,417.2L936.4,418.1L935.9,419.6L935.3,421.2L934.8,422.7L935.7,424.0L935.0,425.4L933.3,425.4L931.7,425.0L930.5,423.8L929.3,422.6L927.8,422.6L926.3,423.5L924.9,424.3L923.6,425.4L922.7,426.8L922.1,428.4L921.5,430.0L922.8,431.1L924.1,432.2L925.4,433.3L926.4,434.6L927.5,435.9L928.8,436.9L930.1,438.0L931.5,439.0L932.7,440.2L933.8,441.5L934.3,443.0L934.8,444.6L935.6,446.1L936.6,447.4L937.7,448.7L938.9,449.9L940.1,449.3L941.1,447.9L942.1,446.5L943.4,445.6L944.9,445.1L945.7,443.6L946.6,442.4L948.2,441.9L949.8,441.2L951.2,440.4L952.6,439.4L954.1,438.8L955.6,439.3L956.7,440.6L958.0,441.7L959.2,442.2L960.6,442.2L961.7,443.5L963.0,444.5L964.4,445.6L965.9,446.1L967.3,445.2L968.8,444.4L970.4,443.8L971.0,442.2L971.1,440.5L971.3,438.8L972.7,438.4L974.3,439.0L975.9,438.9L977.3,438.0L978.9,437.5L980.4,436.8L981.9,436.0L983.4,435.4L984.4,436.8L985.3,438.2L984.4,439.6L983.9,441.1L984.5,442.7L984.8,444.4L985.3,445.8L986.8,445.8L988.5,446.2L990.2,446.3L991.7,445.6L992.9,444.4L994.0,443.1L995.0,441.8L996.1,440.4L997.1,439.1L998.1,437.7L999.3,436.5L1000.5,435.3L1001.9,434.4L1003.4,433.6L1004.7,432.4L1005.5,431.0L1006.7,429.8L1008.3,429.2L1009.9,428.6L1011.4,427.9L1012.7,426.9L1013.6,425.4L1014.5,424.0L1015.2,422.5L1016.0,420.9L1016.7,419.4L1017.3,417.8L1017.5,416.1L1017.7,414.5L1017.9,412.8L1018.2,411.1L1018.3,409.4L1018.2,407.7L1018.1,406.0L1018.0,404.3L1017.9,402.6L1017.8,400.9L1017.7,399.2L1017.5,397.5L1017.4,395.8L1017.7,394.2L1018.7,392.8L1019.9,391.6L1021.1,390.4L1022.3,389.2L1023.4,387.9L1024.3,386.5L1025.1,385.0L1025.8,383.4L1026.5,381.9L1027.2,380.3L1027.9,378.8L1028.8,377.3L1029.7,375.9L1030.8,374.6L1032.1,373.5L1033.5,372.6L1035.1,371.9L1036.6,371.2L1038.1,370.4L1039.3,369.2L1040.6,368.1L1041.9,367.0L1043.0,365.8L1044.2,364.5L1045.3,363.2L1046.3,361.9L1046.1,360.2L1045.9,358.5L1045.6,356.9L1045.9,355.2L1046.3,353.5L1046.7,351.9L1047.3,350.3L1047.9,348.7L1048.5,347.1L1048.6,345.4L1048.8,343.7L1048.9,342.0L1048.9,340.3L1048.6,338.7L1048.4,337.0L1048.1,335.3L1048.1,333.6L1048.2,331.9L1048.2,330.2L1048.8,328.6L1049.3,327.0L1049.8,325.4L1050.4,323.8L1051.0,322.2L1051.1,320.5L1051.2,318.8L1051.1,317.1L1051.1,315.4L1051.0,313.7L1051.3,312.0L1051.8,310.4L1052.3,308.8L1052.8,307.2L1053.3,305.6L1054.1,304.0L1054.8,302.5L1055.6,301.0L1056.4,299.5L1057.2,298.0L1057.9,296.5L1058.6,294.9L1059.1,293.3L1059.6,291.7L1060.1,290.1L1060.6,288.4L1060.6,286.8L1060.4,285.1L1059.2,284.1L1058.3,282.6L1056.8,282.5L1055.1,283.0L1053.6,283.7L1052.2,284.6L1050.9,283.9L1049.3,283.8L1047.6,283.8L1045.9,283.7L1044.3,283.1L1042.7,282.7L1041.0,282.3L1039.4,281.8L1037.8,281.6L1036.3,282.4L1034.7,283.1L1033.1,283.5L1031.4,283.9L1029.8,284.3L1028.1,284.5L1026.4,284.7L1024.7,284.8L1023.0,285.0L1021.7,286.0L1021.0,287.5L1020.6,289.2L1020.2,290.8L1019.8,292.4L1019.8,294.1L1019.6,295.8L1019.6,297.5L1019.4,299.1L1018.7,300.7L1018.0,302.2L1017.2,303.7L1016.5,305.3L1015.8,306.8L1015.1,308.3L1014.6,309.9L1013.6,311.1L1012.7,312.5L1012.6,314.2L1013.0,315.9L1013.6,317.5L1014.0,319.1L1013.2,320.3L1011.8,319.9L1010.5,318.8L1009.0,318.0L1007.6,317.1L1006.1,316.2L1004.5,315.9L1002.8,315.7L1001.1,315.7L999.4,315.8L997.9,315.5L996.4,314.7L994.8,314.5L993.2,315.0L991.5,314.8L990.2,314.5L989.1,313.7L987.4,313.7L986.2,312.9L984.7,312.0L983.2,311.9L981.7,312.4L980.0,312.4L978.3,312.4L976.6,312.5L974.9,312.6L973.2,312.6L971.5,312.7L969.8,312.7L968.1,312.8L966.4,312.8L964.7,312.9L963.0,312.9L961.3,312.9L959.6,313.0L959.2,314.4L958.6,316.0L957.9,317.5L957.5,319.2L957.2,320.8L957.1,322.5L957.4,324.2L958.0,325.8L958.6,327.3L958.7,329.0L958.2,330.2L959.7,330.4L961.4,329.9L963.0,329.4L964.6,328.8L966.2,328.2L967.7,327.6L969.4,327.1L971.0,326.8L972.7,327.0L974.4,327.1L976.1,327.4L977.6,328.1L978.3,329.6L978.9,331.2L979.7,332.6L980.7,334.0L981.4,335.5L982.0,337.1L981.5,338.6L980.6,340.1L980.0,341.6L978.7,342.8L977.1,343.2L975.4,343.5L974.6,345.0L973.6,346.3L972.6,347.7L972.0,349.3L971.8,350.9L971.9,352.6L971.8,354.3L971.7,356.0L971.5,357.7L972.9,358.5L974.6,358.7L976.2,359.2L977.2,360.6L978.4,361.8L980.1,362.1L981.6,362.7L982.9,363.8L983.7,365.2L983.4,366.9L983.1,368.6L982.8,370.2L982.5,371.9L982.7,373.6L983.0,375.3L983.2,377.0L983.4,378.7L983.6,380.3L983.6,382.0L982.9,383.6L982.9,385.2L983.0,386.8L982.7,388.5L982.1,390.0L980.7,390.9L980.0,392.4L979.6,394.0L978.8,395.5L978.7,397.0L979.3,398.4L978.1,399.6L976.9,400.7L975.2,401.1L973.6,400.8L973.1,399.5L972.9,397.9L972.0,396.5L971.2,395.0L969.9,395.2L968.9,396.5L967.7,397.7L966.3,398.8L964.9,399.7L963.3,399.9L961.6,399.7L959.9,399.4L958.3,399.0L956.6,398.5L955.5,397.4L954.6,395.9L953.9,394.4L953.1,392.9L952.2,391.4L950.9,390.4L949.4,389.6L947.8,389.5L946.4,390.5L945.2,391.5L945.4,393.2L946.1,394.7L946.0,396.4L945.7,398.1L944.9,399.2L943.3,399.6L941.6,400.0L940.0,400.4L938.4,400.8L936.8,400.0L935.3,399.7L933.7,400.2L932.0,400.6L930.5,400.0L929.1,400.3L929.3,401.9L929.5,403.6L929.6,405.3L929.3,406.9L928.8,408.6L929.6,409.4L931.2,410.0L932.3,411.2L932.9,412.6Z" fill="#ef4444" fill-opacity="0.30" stroke="#991b1b" stroke-width="1.8"/>
<text x="990.0" y="276" font-size="13" text-anchor="middle" fill="#991b1b" font-weight="bold">10. Congo</text>
<text x="990.0" y="472" font-size="12" text-anchor="middle" fill="#555">d=0.280</text>
</svg>