<svg xmlns="http://www.w3.org/2000/svg" width="500" height="530" font-family="sans-serif" style="background:#fff">
<text x="250.0" y="30" font-size="18" text-anchor="middle" font-weight="bold">Poland vs. a perfect circle</text>
<circle cx="250.0" cy="250.0" r="134.4" fill="none" stroke="#9ca3af" stroke-width="1.6" stroke-dasharray="6 4"/>
<path d="M382.4,243.2L384.2,246.4L384.9,248.9L384.4,250.9L384.7,252.9L386.3,254.9L391.2,261.2L393.8,267.4L395.3,269.8L398.8,272.8L399.2,274.1L398.0,275.4L396.9,275.6L396.1,276.0L395.6,277.1L396.5,278.3L397.8,280.0L399.6,284.9L399.7,289.0L398.6,290.1L397.3,292.6L396.5,294.9L388.7,296.9L387.0,299.4L382.9,304.2L380.1,307.0L376.0,312.0L369.4,320.6L367.0,324.2L365.3,327.1L360.0,334.9L358.4,338.2L358.8,340.8L360.9,346.8L361.4,349.6L361.2,352.1L360.7,354.5L360.9,355.5L362.6,357.0L365.5,359.5L365.6,360.4L365.3,361.5L364.4,362.4L361.0,361.7L357.2,360.1L355.9,360.3L353.8,360.0L345.3,357.0L339.6,354.5L338.9,352.8L337.8,350.3L335.3,348.3L329.8,346.7L327.5,345.3L318.6,344.8L314.7,344.9L312.0,345.5L310.2,345.5L307.9,349.3L306.2,350.4L303.8,350.5L301.6,349.9L299.4,348.0L295.9,347.0L293.4,347.6L291.6,347.2L290.0,347.1L289.4,347.5L288.1,347.5L286.3,348.4L284.2,349.8L282.0,350.8L280.3,353.0L278.8,357.2L274.4,355.4L272.9,356.2L270.8,356.8L269.4,356.2L269.8,354.7L270.4,353.1L270.3,350.8L269.9,348.3L268.6,347.4L266.5,347.1L265.5,346.6L265.4,345.8L264.3,344.7L262.5,342.0L260.8,338.6L259.7,337.6L257.9,339.2L255.4,341.1L253.8,341.7L250.6,347.0L245.0,347.1L244.7,344.6L244.1,342.3L240.9,341.7L240.8,340.3L240.1,336.8L233.7,329.9L232.9,327.1L233.2,326.0L232.8,324.2L231.4,323.1L226.3,321.7L224.9,322.4L223.8,321.6L221.9,320.0L218.7,318.6L218.4,317.9L217.2,316.7L216.6,316.5L216.1,317.2L215.2,318.2L211.8,319.4L210.5,318.9L209.3,317.8L208.0,315.3L206.1,313.2L204.4,312.4L203.5,311.3L203.3,310.5L207.0,308.9L207.9,307.1L207.5,303.9L206.9,303.5L205.5,304.5L202.4,305.4L199.6,305.8L198.2,305.7L190.4,299.7L185.3,297.7L182.2,297.1L181.9,297.7L183.1,301.0L185.4,305.1L185.2,306.2L182.3,307.8L180.7,308.4L178.7,309.8L177.0,311.6L175.6,312.5L174.4,312.2L173.1,311.2L170.0,305.1L166.1,300.4L165.6,299.3L164.3,299.0L162.6,297.9L162.0,296.5L163.0,295.0L164.3,293.8L166.6,293.0L167.3,292.3L167.7,291.1L168.6,289.6L168.4,289.1L166.9,287.3L164.6,285.6L158.1,286.5L156.3,287.3L155.3,286.1L154.6,284.5L153.0,284.1L150.8,282.5L148.3,280.9L145.7,280.3L140.4,277.9L138.3,277.7L137.2,276.9L136.0,275.2L135.0,273.4L134.7,269.8L130.8,267.9L127.0,266.7L126.6,267.2L126.6,270.8L126.3,272.7L123.6,273.7L121.0,273.7L121.2,273.1L124.7,266.8L126.3,262.8L128.3,255.4L126.8,249.5L126.4,246.7L125.6,245.3L120.5,242.1L120.1,241.1L121.2,237.3L120.9,235.6L119.7,233.8L118.3,230.2L117.8,227.3L120.2,224.0L120.9,221.5L122.0,218.2L122.8,216.3L123.0,215.8L121.7,214.4L121.4,212.5L122.0,209.8L121.4,207.7L119.6,206.3L118.5,204.5L118.1,202.3L118.8,199.0L120.5,194.5L117.8,188.7L110.8,181.7L107.6,177.0L108.1,174.4L109.8,172.2L112.8,170.3L115.2,166.7L116.7,162.4L116.8,161.5L117.1,158.4L114.7,145.3L114.4,142.0L114.3,138.1L114.2,137.0L120.4,140.2L123.0,141.9L122.8,140.2L122.3,138.6L122.8,136.5L122.9,133.2L117.2,131.1L113.4,130.3L113.1,128.0L113.6,126.5L114.6,127.5L118.3,128.1L127.9,124.3L144.1,119.5L161.4,115.0L165.3,114.6L169.4,113.6L170.9,111.7L172.4,110.4L174.9,106.9L180.2,101.6L189.2,99.9L192.6,97.4L199.8,93.9L215.8,90.2L222.4,89.5L228.9,89.4L234.7,92.8L240.8,96.9L241.8,99.3L238.5,97.8L233.7,94.1L231.9,93.9L235.9,104.9L238.2,108.8L242.8,111.8L246.6,112.8L258.5,111.1L262.8,108.8L264.0,107.6L265.1,108.2L272.8,108.7L280.7,109.3L293.3,109.8L306.4,110.2L320.1,110.6L334.9,110.8L350.5,110.6L351.4,110.3L352.9,108.3L354.8,108.5L357.2,109.5L358.3,110.3L358.8,111.3L359.1,112.4L360.4,112.5L362.7,113.3L365.9,115.1L368.5,116.8L371.0,119.4L371.9,122.4L372.1,125.8L372.1,128.1L372.4,128.9L376.5,144.9L382.8,160.0L385.2,167.4L386.3,171.4L387.3,177.1L387.7,181.2L387.9,183.5L387.7,186.7L386.1,188.6L376.0,194.6L374.1,196.3L371.2,200.7L368.6,205.1L368.0,206.6L367.8,207.6L368.6,208.9L372.5,211.0L376.4,212.6L377.7,214.0L380.6,215.6L381.7,217.1L382.4,218.4L382.5,221.6L381.5,226.1L382.2,229.4L381.0,231.7L380.1,234.2L380.2,238.5L382.4,243.2Z" fill="#dc2626" fill-opacity="0.35" stroke="#7f1d1d" stroke-width="2"/>
<text x="250.0" y="515" font-size="15" text-anchor="middle" fill="#333">IPQ = 0.527  (dashed = equal-area circle; 1.000 = perfect circle)</text>
</svg>